# Blender 5.2.0 LTS
# www.blender.org
mtllib waregv_wheel.mtl
o WareGV_Wheel
v -0.559210 -0.000000 -3.000000
v -0.559210 0.535671 -2.951789
v -0.559210 1.054124 -2.808705
v -0.559210 1.538698 -2.575346
v -0.559210 1.973816 -2.259214
v -0.559210 2.345494 -1.870469
v -0.559210 2.641787 -1.421606
v -0.559210 2.853170 -0.927051
v -0.559210 2.972849 -0.402700
v -0.559210 2.996979 0.134594
v -0.559210 2.924784 0.667563
v -0.559210 2.758583 1.179075
v -0.559210 2.503720 1.652691
v -0.559210 2.168385 2.073189
v -0.559210 1.763356 2.427052
v -0.559210 1.301651 2.702908
v -0.559210 0.798111 2.891890
v -0.559210 0.268918 2.987923
v -0.559210 -0.268918 2.987923
v -0.559210 -0.798111 2.891890
v -0.559210 -1.301651 2.702908
v -0.559210 -1.763356 2.427052
v -0.559210 -2.168385 2.073189
v -0.559210 -2.503720 1.652691
v -0.559210 -2.758583 1.179075
v -0.559210 -2.924784 0.667563
v -0.559210 -2.996979 0.134594
v -0.559210 -2.972849 -0.402700
v -0.559210 -2.853170 -0.927051
v -0.559210 -2.641787 -1.421606
v -0.559210 -2.345494 -1.870469
v -0.559210 -1.973816 -2.259214
v -0.559210 -1.538698 -2.575346
v -0.559210 -1.054124 -2.808705
v -0.559210 -0.535671 -2.951789
v -1.059210 -0.000000 -3.000000
v -1.059210 -0.535671 -2.951789
v -1.059210 -1.054124 -2.808705
v -1.059210 -1.538698 -2.575346
v -1.059210 -1.973816 -2.259214
v -1.059210 -2.345494 -1.870469
v -1.059210 -2.641787 -1.421606
v -1.059210 -2.853170 -0.927051
v -1.059210 -2.972849 -0.402700
v -1.059210 -2.996979 0.134594
v -1.059210 -2.924784 0.667563
v -1.059210 -2.758583 1.179075
v -1.059210 -2.503720 1.652691
v -1.059210 -2.168385 2.073189
v -1.059210 -1.763356 2.427052
v -1.059210 -1.301651 2.702908
v -1.059210 -0.798111 2.891890
v -1.059210 -0.268918 2.987923
v -1.059210 0.268918 2.987923
v -1.059210 0.798111 2.891890
v -1.059210 1.301651 2.702908
v -1.059210 1.763356 2.427052
v -1.059210 2.168385 2.073189
v -1.059210 2.503720 1.652691
v -1.059210 2.758583 1.179075
v -1.059210 2.924784 0.667563
v -1.059210 2.996979 0.134594
v -1.059210 2.972849 -0.402700
v -1.059210 2.853170 -0.927051
v -1.059210 2.641787 -1.421606
v -1.059210 2.345494 -1.870469
v -1.059210 1.973816 -2.259214
v -1.059210 1.538698 -2.575346
v -1.059210 1.054124 -2.808705
v -1.059210 0.535671 -2.951789
v 2.440790 -0.000000 -4.250000
v 2.440790 -0.648759 -4.200192
v 2.440790 -1.282313 -4.051935
v 2.440790 -1.885809 -3.808704
v 2.440790 -2.445104 -3.476200
v 2.440790 -2.947088 -3.062217
v 2.440790 -3.379995 -2.576458
v 2.440790 -3.733677 -2.030309
v 2.440790 -3.999845 -1.436572
v 2.440790 -4.172260 -0.809162
v 2.440790 -4.246881 -0.162787
v 2.440790 -4.221959 0.487405
v 2.440790 -4.098077 1.126171
v 2.440790 -3.878140 1.738542
v 2.440790 -3.567303 2.310162
v 2.440790 -3.172851 2.827635
v 2.440790 -2.704030 3.278830
v 2.440790 -2.171829 3.653172
v 2.440790 -1.588723 3.941885
v 2.440790 -0.968377 4.138206
v 2.440790 -0.325334 4.237530
v 2.440790 0.325334 4.237530
v 2.440790 0.968377 4.138206
v 2.440790 1.588723 3.941885
v 2.440790 2.171829 3.653172
v 2.440790 2.704030 3.278830
v 2.440790 3.172851 2.827635
v 2.440790 3.567303 2.310162
v 2.440790 3.878140 1.738542
v 2.440790 4.098077 1.126171
v 2.440790 4.221959 0.487405
v 2.440790 4.246881 -0.162787
v 2.440790 4.172260 -0.809162
v 2.440790 3.999845 -1.436572
v 2.440790 3.733677 -2.030309
v 2.440790 3.379995 -2.576458
v 2.440790 2.947088 -3.062217
v 2.440790 2.445104 -3.476200
v 2.440790 1.885809 -3.808704
v 2.440790 1.282313 -4.051935
v 2.440790 0.648759 -4.200192
v -1.059210 -0.000000 -4.250000
v -1.059210 0.648759 -4.200192
v -1.059210 1.282313 -4.051935
v -1.059210 1.885809 -3.808704
v -1.059210 2.445104 -3.476200
v -1.059210 2.947088 -3.062217
v -1.059210 3.379995 -2.576458
v -1.059210 3.733677 -2.030309
v -1.059210 3.999845 -1.436572
v -1.059210 4.172260 -0.809162
v -1.059210 4.246881 -0.162787
v -1.059210 4.221959 0.487405
v -1.059210 4.098077 1.126171
v -1.059210 3.878140 1.738542
v -1.059210 3.567303 2.310162
v -1.059210 3.172851 2.827635
v -1.059210 2.704030 3.278830
v -1.059210 2.171829 3.653172
v -1.059210 1.588723 3.941885
v -1.059210 0.968377 4.138206
v -1.059210 0.325334 4.237530
v -1.059210 -0.325334 4.237530
v -1.059210 -0.968377 4.138206
v -1.059210 -1.588723 3.941885
v -1.059210 -2.171829 3.653172
v -1.059210 -2.704030 3.278830
v -1.059210 -3.172851 2.827635
v -1.059210 -3.567303 2.310162
v -1.059210 -3.878140 1.738542
v -1.059210 -4.098077 1.126171
v -1.059210 -4.221959 0.487405
v -1.059210 -4.246881 -0.162787
v -1.059210 -4.172260 -0.809162
v -1.059210 -3.999845 -1.436572
v -1.059210 -3.733677 -2.030309
v -1.059210 -3.379995 -2.576458
v -1.059210 -2.947088 -3.062217
v -1.059210 -2.445104 -3.476200
v -1.059210 -1.885809 -3.808704
v -1.059210 -1.282313 -4.051935
v -1.059210 -0.648759 -4.200192
vn -0.0000 -0.1786 0.9839
vn -0.0000 -0.0000 1.0000
vn -0.0000 0.1786 0.9839
vn -0.0000 0.3514 0.9362
vn -0.0000 0.5129 0.8585
vn -0.0000 0.5129 0.8584
vn -0.0000 0.6579 0.7531
vn -0.0000 0.7818 0.6235
vn -0.0000 0.8806 0.4739
vn -0.0000 0.9511 0.3090
vn -0.0000 0.9909 0.1342
vn -0.0000 0.9990 -0.0449
vn -0.0000 0.9749 -0.2225
vn -0.0000 0.9195 -0.3930
vn -0.0000 0.8346 -0.5509
vn -0.0000 0.7228 -0.6911
vn -0.0000 0.5878 -0.8090
vn -0.0000 0.4339 -0.9010
vn -0.0000 0.2660 -0.9640
vn -0.0000 0.0896 -0.9960
vn -0.0000 -0.0896 -0.9960
vn -0.0000 -0.2660 -0.9640
vn -0.0000 -0.4339 -0.9010
vn -0.0000 -0.5878 -0.8090
vn -0.0000 -0.7228 -0.6911
vn -0.0000 -0.8346 -0.5509
vn -0.0000 -0.9195 -0.3930
vn -0.0000 -0.9749 -0.2225
vn -0.0000 -0.9990 -0.0449
vn -0.0000 -0.9910 0.1342
vn -0.0000 -0.9909 0.1342
vn -0.0000 -0.9511 0.3090
vn -0.0000 -0.8806 0.4739
vn -0.0000 -0.7818 0.6235
vn -0.0000 -0.6579 0.7531
vn -0.0000 -0.5129 0.8584
vn -0.0000 -0.3514 0.9362
vn -1.0000 -0.0000 -0.0000
vn -0.0000 -0.1526 -0.9883
vn -0.0000 -0.0000 -1.0000
vn -0.0000 0.1526 -0.9883
vn -0.0000 0.3017 -0.9534
vn -0.0000 0.4437 -0.8962
vn -0.0000 0.5753 -0.8179
vn -0.0000 0.6934 -0.7205
vn -0.0000 0.7953 -0.6062
vn -0.0000 0.8785 -0.4777
vn -0.0000 0.9411 -0.3380
vn -0.0000 0.9817 -0.1904
vn -0.0000 0.9993 -0.0383
vn -0.0000 0.9934 0.1147
vn -0.0000 0.9643 0.2650
vn -0.0000 0.9125 0.4091
vn -0.0000 0.8394 0.5436
vn -0.0000 0.7466 0.6653
vn -0.0000 0.6362 0.7715
vn -0.0000 0.5110 0.8596
vn -0.0000 0.3738 0.9275
vn -0.0000 0.2279 0.9737
vn -0.0000 0.0765 0.9971
vn -0.0000 -0.0765 0.9971
vn -0.0000 -0.2279 0.9737
vn -0.0000 -0.3738 0.9275
vn -0.0000 -0.5110 0.8596
vn -0.0000 -0.6362 0.7715
vn -0.0000 -0.7466 0.6653
vn -0.0000 -0.8394 0.5436
vn -0.0000 -0.9125 0.4091
vn -0.0000 -0.9643 0.2650
vn -0.0000 -0.9934 0.1147
vn -0.0000 -0.9993 -0.0383
vn -0.0000 -0.9817 -0.1904
vn -0.0000 -0.9411 -0.3380
vn -0.0000 -0.8785 -0.4777
vn -0.0000 -0.7953 -0.6062
vn -0.0000 -0.6934 -0.7205
vn -0.0000 -0.5753 -0.8179
vn -0.0000 -0.4437 -0.8962
vn -0.0000 -0.3017 -0.9534
vn 1.0000 -0.0000 -0.0000
vn 1.0000 -0.0000 0.0001
vt 0.500000 -8.886219
vt 0.000000 -8.886219
vt 0.500000 -9.424778
vt 0.000000 -9.424778
vt 0.500000 9.424778
vt 0.000000 9.424778
vt 0.500000 8.886219
vt 0.000000 8.886219
vt 0.500000 8.347660
vt 0.000000 8.347660
vt 0.500000 7.809102
vt 0.000000 7.809102
vt 0.500000 7.270543
vt 0.000000 7.270543
vt 0.500000 6.731984
vt 0.000000 6.731984
vt 0.500000 6.193426
vt 0.000000 6.193426
vt 0.500000 5.654867
vt 0.000000 5.654867
vt 0.500000 5.116308
vt 0.000000 5.116308
vt 0.500000 4.577749
vt 0.000000 4.577749
vt 0.500000 4.039191
vt 0.000000 4.039191
vt 0.500000 3.500632
vt 0.000000 3.500632
vt 0.500000 2.962073
vt 0.000000 2.962073
vt 0.500000 2.423514
vt 0.000000 2.423514
vt 0.500000 1.884956
vt 0.000000 1.884956
vt 0.500000 1.346397
vt 0.000000 1.346397
vt 0.500000 0.807838
vt 0.000000 0.807838
vt 0.500000 0.269279
vt 0.000000 0.269279
vt 0.500000 -0.269279
vt 0.000000 -0.269279
vt 0.500000 -0.807838
vt 0.000000 -0.807838
vt 0.500000 -1.346397
vt 0.000000 -1.346397
vt 0.500000 -1.884956
vt 0.000000 -1.884956
vt 0.500000 -2.423514
vt 0.000000 -2.423514
vt 0.500000 -2.962073
vt 0.000000 -2.962073
vt 0.500000 -3.500632
vt 0.000000 -3.500632
vt 0.500000 -4.039191
vt 0.000000 -4.039191
vt 0.500000 -4.577749
vt 0.000000 -4.577749
vt 0.500000 -5.116308
vt 0.000000 -5.116308
vt 0.500000 -5.654867
vt 0.000000 -5.654867
vt 0.500000 -6.193426
vt 0.000000 -6.193426
vt 0.500000 -6.731984
vt 0.000000 -6.731984
vt 0.500000 -7.270543
vt 0.000000 -7.270543
vt 0.500000 -7.809102
vt 0.000000 -7.809102
vt 0.500000 -8.347660
vt 0.000000 -8.347660
vt -3.000000 -0.000000
vt -2.951789 -0.535671
vt -2.951789 0.535671
vt -2.808705 1.054124
vt -2.808705 -1.054124
vt -2.575346 1.538698
vt -2.575346 -1.538698
vt -2.259214 1.973816
vt -1.870469 2.345494
vt -1.421606 2.641787
vt -0.927051 2.853170
vt -0.402700 2.972849
vt 0.134594 2.996979
vt 0.667563 2.924784
vt 1.179075 2.758583
vt 1.652691 2.503720
vt 2.073188 2.168385
vt -2.259214 -1.973816
vt 2.427051 1.763356
vt 2.702907 1.301651
vt 2.891889 0.798111
vt 2.987923 0.268918
vt 2.987923 -0.268918
vt 2.891889 -0.798111
vt 2.702907 -1.301651
vt 2.427051 -1.763356
vt 2.073188 -2.168385
vt -1.870469 -2.345494
vt 1.652691 -2.503720
vt -1.421606 -2.641787
vt 1.179075 -2.758583
vt -0.927051 -2.853170
vt 0.667563 -2.924784
vt -0.402700 -2.972849
vt 0.134594 -2.996979
vt -3.500000 12.700463
vt -0.000000 12.700463
vt -3.500000 13.351769
vt -0.000000 13.351769
vt -3.500000 -13.351769
vt -0.000000 -13.351769
vt -3.500000 -12.700463
vt -0.000000 -12.700463
vt -3.500000 -12.049157
vt -0.000000 -12.049157
vt -3.500000 -11.397851
vt -0.000000 -11.397851
vt -3.500000 -10.746546
vt -0.000000 -10.746546
vt -3.500000 -10.095240
vt -0.000000 -10.095240
vt -3.500000 -9.443934
vt -0.000000 -9.443934
vt -3.500000 -8.792628
vt -0.000000 -8.792628
vt -3.500000 -8.141322
vt -0.000000 -8.141322
vt -3.500000 -7.490017
vt -0.000000 -7.490017
vt -3.500000 -6.838711
vt -0.000000 -6.838711
vt -3.500000 -6.187405
vt -0.000000 -6.187405
vt -3.500000 -5.536099
vt -0.000000 -5.536099
vt -3.500000 -4.884793
vt -0.000000 -4.884793
vt -3.500000 -4.233488
vt -0.000000 -4.233488
vt -3.500000 -3.582182
vt -0.000000 -3.582182
vt -3.500000 -2.930876
vt -0.000000 -2.930876
vt -3.500000 -2.279570
vt -0.000000 -2.279570
vt -3.500000 -1.628264
vt -0.000000 -1.628264
vt -3.500000 -0.976959
vt -0.000000 -0.976959
vt -3.500000 -0.325653
vt -0.000000 -0.325653
vt -3.500000 0.325653
vt -0.000000 0.325653
vt -3.500000 0.976959
vt -0.000000 0.976959
vt -3.500000 1.628264
vt -0.000000 1.628264
vt -3.500000 2.279570
vt -0.000000 2.279570
vt -3.500000 2.930876
vt -0.000000 2.930876
vt -3.500000 3.582182
vt -0.000000 3.582182
vt -3.500000 4.233488
vt -0.000000 4.233488
vt -3.500000 4.884793
vt -0.000000 4.884793
vt -3.500000 5.536099
vt -0.000000 5.536099
vt -3.500000 6.187405
vt -0.000000 6.187405
vt -3.500000 6.838711
vt -0.000000 6.838711
vt -3.500000 7.490017
vt -0.000000 7.490017
vt -3.500000 8.141322
vt -0.000000 8.141322
vt -3.500000 8.792628
vt -0.000000 8.792628
vt -3.500000 9.443934
vt -0.000000 9.443934
vt -3.500000 10.095240
vt -0.000000 10.095240
vt -3.500000 10.746546
vt -0.000000 10.746546
vt -3.500000 11.397851
vt -0.000000 11.397851
vt -3.500000 12.049157
vt -0.000000 12.049157
vt -4.200192 0.648759
vt -4.250000 -0.000000
vt -4.200192 -0.648759
vt -4.051935 1.282313
vt -3.808704 1.885809
vt -3.476200 2.445104
vt -3.062217 2.947088
vt -2.576458 3.379995
vt -2.030309 3.733677
vt -1.436572 3.999845
vt -0.809162 4.172260
vt -0.162787 4.246881
vt 0.487405 4.221959
vt 1.126171 4.098077
vt 1.738542 3.878140
vt 2.310162 3.567303
vt 2.827634 3.172851
vt 3.278829 2.704030
vt 3.653171 2.171829
vt 3.941885 1.588723
vt 4.138206 0.968377
vt 4.237530 0.325334
vt 4.237530 -0.325334
vt 4.138206 -0.968377
vt 3.941885 -1.588723
vt 3.653171 -2.171829
vt 3.278829 -2.704030
vt 2.827634 -3.172851
vt 2.310162 -3.567303
vt 1.738542 -3.878140
vt 1.126171 -4.098077
vt 0.487405 -4.221959
vt -0.162787 -4.246881
vt -0.809162 -4.172260
vt -1.436572 -3.999845
vt -2.030309 -3.733677
vt -2.576458 -3.379995
vt -3.062217 -2.947088
vt -3.476200 -2.445104
vt -3.808704 -1.885809
vt -4.051935 -1.282313
vt 4.200192 -0.648759
vt 4.250000 -0.000000
vt -3.653171 -2.171829
vt 4.200192 0.648759
vt 4.051935 1.282313
vt 3.808704 1.885809
vt 3.476200 2.445104
vt 3.062217 2.947088
vt 2.576458 3.379995
vt 2.030309 3.733677
vt 1.436572 3.999845
vt 0.809162 4.172260
vt 0.162787 4.246881
vt -0.487405 4.221959
vt -3.941885 -1.588723
vt -1.126171 4.098077
vt -1.738542 3.878140
vt -2.310162 3.567303
vt -2.827634 3.172851
vt -3.278829 2.704030
vt -3.653171 2.171829
vt -3.941885 1.588723
vt -4.138206 -0.968377
vt -4.138206 0.968377
vt -4.237530 -0.325334
vt -4.237530 0.325334
vt -3.278829 -2.704030
vt 3.476200 -2.445104
vt 3.808704 -1.885809
vt 4.051935 -1.282313
vt 3.062217 -2.947088
vt -2.827634 -3.172851
vt 2.576458 -3.379995
vt -2.310162 -3.567303
vt 2.030309 -3.733677
vt -1.738542 -3.878140
vt 1.436572 -3.999845
vt -1.126171 -4.098077
vt 0.809162 -4.172260
vt -0.487405 -4.221959
vt 0.162787 -4.246881
s 1
usemtl Paint_-_Enamel_Glossy_(Black)
f 2/1/1 70/2/1 1/3/2
f 1/3/2 70/2/1 36/4/2
f 1/5/2 36/6/2 35/7/3
f 35/7/3 36/6/2 37/8/3
f 35/7/3 37/8/3 34/9/4
f 34/9/4 37/8/3 38/10/4
f 34/9/4 38/10/4 33/11/5
f 33/11/5 38/10/4 39/12/6
f 33/11/5 39/12/6 32/13/7
f 32/13/7 39/12/6 40/14/7
f 32/13/7 40/14/7 31/15/8
f 31/15/8 40/14/7 41/16/8
f 31/15/8 41/16/8 30/17/9
f 30/17/9 41/16/8 42/18/9
f 30/17/9 42/18/9 29/19/10
f 29/19/10 42/18/9 43/20/10
f 29/19/10 43/20/10 28/21/11
f 28/21/11 43/20/10 44/22/11
f 28/21/11 44/22/11 27/23/12
f 27/23/12 44/22/11 45/24/12
f 27/23/12 45/24/12 26/25/13
f 26/25/13 45/24/12 46/26/13
f 26/25/13 46/26/13 25/27/14
f 25/27/14 46/26/13 47/28/14
f 25/27/14 47/28/14 24/29/15
f 24/29/15 47/28/14 48/30/15
f 24/29/15 48/30/15 23/31/16
f 23/31/16 48/30/15 49/32/16
f 23/31/16 49/32/16 22/33/17
f 22/33/17 49/32/16 50/34/17
f 22/33/17 50/34/17 21/35/18
f 21/35/18 50/34/17 51/36/18
f 21/35/18 51/36/18 20/37/19
f 20/37/19 51/36/18 52/38/19
f 20/37/19 52/38/19 19/39/20
f 19/39/20 52/38/19 53/40/20
f 19/39/20 53/40/20 18/41/21
f 18/41/21 53/40/20 54/42/21
f 18/41/21 54/42/21 17/43/22
f 17/43/22 54/42/21 55/44/22
f 17/43/22 55/44/22 16/45/23
f 16/45/23 55/44/22 56/46/23
f 16/45/23 56/46/23 15/47/24
f 15/47/24 56/46/23 57/48/24
f 15/47/24 57/48/24 14/49/25
f 14/49/25 57/48/24 58/50/25
f 14/49/25 58/50/25 13/51/26
f 13/51/26 58/50/25 59/52/26
f 13/51/26 59/52/26 12/53/27
f 12/53/27 59/52/26 60/54/27
f 12/53/27 60/54/27 11/55/28
f 11/55/28 60/54/27 61/56/28
f 11/55/28 61/56/28 10/57/29
f 10/57/29 61/56/28 62/58/29
f 10/57/29 62/58/29 9/59/30
f 9/59/30 62/58/29 63/60/31
f 9/59/30 63/60/31 8/61/32
f 8/61/32 63/60/31 64/62/32
f 8/61/32 64/62/32 7/63/33
f 7/63/33 64/62/32 65/64/33
f 7/63/33 65/64/33 6/65/34
f 6/65/34 65/64/33 66/66/34
f 6/65/34 66/66/34 5/67/35
f 5/67/35 66/66/34 67/68/35
f 5/67/35 67/68/35 4/69/36
f 4/69/36 67/68/35 68/70/36
f 4/69/36 68/70/36 3/71/37
f 3/71/37 68/70/36 69/72/37
f 3/71/37 69/72/37 2/1/1
f 2/1/1 69/72/37 70/2/1
f 72/108/39 152/109/39 71/110/40
f 71/110/40 152/109/39 112/111/40
f 71/112/40 112/113/40 111/114/41
f 111/114/41 112/113/40 113/115/41
f 111/114/41 113/115/41 110/116/42
f 110/116/42 113/115/41 114/117/42
f 110/116/42 114/117/42 109/118/43
f 109/118/43 114/117/42 115/119/43
f 109/118/43 115/119/43 108/120/44
f 108/120/44 115/119/43 116/121/44
f 108/120/44 116/121/44 107/122/45
f 107/122/45 116/121/44 117/123/45
f 107/122/45 117/123/45 106/124/46
f 106/124/46 117/123/45 118/125/46
f 106/124/46 118/125/46 105/126/47
f 105/126/47 118/125/46 119/127/47
f 105/126/47 119/127/47 104/128/48
f 104/128/48 119/127/47 120/129/48
f 104/128/48 120/129/48 103/130/49
f 103/130/49 120/129/48 121/131/49
f 103/130/49 121/131/49 102/132/50
f 102/132/50 121/131/49 122/133/50
f 102/132/50 122/133/50 101/134/51
f 101/134/51 122/133/50 123/135/51
f 101/134/51 123/135/51 100/136/52
f 100/136/52 123/135/51 124/137/52
f 100/136/52 124/137/52 99/138/53
f 99/138/53 124/137/52 125/139/53
f 99/138/53 125/139/53 98/140/54
f 98/140/54 125/139/53 126/141/54
f 98/140/54 126/141/54 97/142/55
f 97/142/55 126/141/54 127/143/55
f 97/142/55 127/143/55 96/144/56
f 96/144/56 127/143/55 128/145/56
f 96/144/56 128/145/56 95/146/57
f 95/146/57 128/145/56 129/147/57
f 95/146/57 129/147/57 94/148/58
f 94/148/58 129/147/57 130/149/58
f 94/148/58 130/149/58 93/150/59
f 93/150/59 130/149/58 131/151/59
f 93/150/59 131/151/59 92/152/60
f 92/152/60 131/151/59 132/153/60
f 92/152/60 132/153/60 91/154/61
f 91/154/61 132/153/60 133/155/61
f 91/154/61 133/155/61 90/156/62
f 90/156/62 133/155/61 134/157/62
f 90/156/62 134/157/62 89/158/63
f 89/158/63 134/157/62 135/159/63
f 89/158/63 135/159/63 88/160/64
f 88/160/64 135/159/63 136/161/64
f 88/160/64 136/161/64 87/162/65
f 87/162/65 136/161/64 137/163/65
f 87/162/65 137/163/65 86/164/66
f 86/164/66 137/163/65 138/165/66
f 86/164/66 138/165/66 85/166/67
f 85/166/67 138/165/66 139/167/67
f 85/166/67 139/167/67 84/168/68
f 84/168/68 139/167/67 140/169/68
f 84/168/68 140/169/68 83/170/69
f 83/170/69 140/169/68 141/171/69
f 83/170/69 141/171/69 82/172/70
f 82/172/70 141/171/69 142/173/70
f 82/172/70 142/173/70 81/174/71
f 81/174/71 142/173/70 143/175/71
f 81/174/71 143/175/71 80/176/72
f 80/176/72 143/175/71 144/177/72
f 80/176/72 144/177/72 79/178/73
f 79/178/73 144/177/72 145/179/73
f 79/178/73 145/179/73 78/180/74
f 78/180/74 145/179/73 146/181/74
f 78/180/74 146/181/74 77/182/75
f 77/182/75 146/181/74 147/183/75
f 77/182/75 147/183/75 76/184/76
f 76/184/76 147/183/75 148/185/76
f 76/184/76 148/185/76 75/186/77
f 75/186/77 148/185/76 149/187/77
f 75/186/77 149/187/77 74/188/78
f 74/188/78 149/187/77 150/189/78
f 74/188/78 150/189/78 73/190/79
f 73/190/79 150/189/78 151/191/79
f 73/190/79 151/191/79 72/108/39
f 72/108/39 151/191/79 152/109/39
f 70/75/38 113/192/38 36/73/38
f 36/73/38 113/192/38 112/193/38
f 36/73/38 112/193/38 152/194/38
f 113/192/38 70/75/38 114/195/38
f 114/195/38 70/75/38 69/76/38
f 114/195/38 69/76/38 115/196/38
f 115/196/38 69/76/38 68/78/38
f 115/196/38 68/78/38 116/197/38
f 116/197/38 68/78/38 67/80/38
f 116/197/38 67/80/38 117/198/38
f 117/198/38 67/80/38 66/81/38
f 117/198/38 66/81/38 118/199/38
f 118/199/38 66/81/38 65/82/38
f 118/199/38 65/82/38 119/200/38
f 119/200/38 65/82/38 120/201/38
f 120/201/38 65/82/38 64/83/38
f 120/201/38 64/83/38 121/202/38
f 121/202/38 64/83/38 63/84/38
f 121/202/38 63/84/38 122/203/38
f 122/203/38 63/84/38 62/85/38
f 122/203/38 62/85/38 123/204/38
f 123/204/38 62/85/38 61/86/38
f 123/204/38 61/86/38 124/205/38
f 124/205/38 61/86/38 60/87/38
f 124/205/38 60/87/38 125/206/38
f 125/206/38 60/87/38 59/88/38
f 125/206/38 59/88/38 126/207/38
f 126/207/38 59/88/38 127/208/38
f 127/208/38 59/88/38 58/89/38
f 127/208/38 58/89/38 128/209/38
f 128/209/38 58/89/38 57/91/38
f 128/209/38 57/91/38 129/210/38
f 129/210/38 57/91/38 56/92/38
f 129/210/38 56/92/38 130/211/38
f 130/211/38 56/92/38 55/93/38
f 130/211/38 55/93/38 131/212/38
f 131/212/38 55/93/38 54/94/38
f 131/212/38 54/94/38 132/213/38
f 132/213/38 54/94/38 133/214/38
f 133/214/38 54/94/38 53/95/38
f 133/214/38 53/95/38 134/215/38
f 134/215/38 53/95/38 52/96/38
f 134/215/38 52/96/38 135/216/38
f 135/216/38 52/96/38 51/97/38
f 135/216/38 51/97/38 136/217/38
f 136/217/38 51/97/38 50/98/38
f 136/217/38 50/98/38 137/218/38
f 137/218/38 50/98/38 49/99/38
f 137/218/38 49/99/38 138/219/38
f 138/219/38 49/99/38 48/101/38
f 138/219/38 48/101/38 139/220/38
f 139/220/38 48/101/38 140/221/38
f 140/221/38 48/101/38 47/103/38
f 140/221/38 47/103/38 141/222/38
f 141/222/38 47/103/38 46/105/38
f 141/222/38 46/105/38 142/223/38
f 142/223/38 46/105/38 45/107/38
f 142/223/38 45/107/38 143/224/38
f 143/224/38 45/107/38 44/106/38
f 143/224/38 44/106/38 144/225/38
f 144/225/38 44/106/38 43/104/38
f 144/225/38 43/104/38 145/226/38
f 145/226/38 43/104/38 42/102/38
f 145/226/38 42/102/38 146/227/38
f 146/227/38 42/102/38 147/228/38
f 147/228/38 42/102/38 41/100/38
f 147/228/38 41/100/38 148/229/38
f 148/229/38 41/100/38 40/90/38
f 148/229/38 40/90/38 149/230/38
f 149/230/38 40/90/38 39/79/38
f 149/230/38 39/79/38 150/231/38
f 150/231/38 39/79/38 38/77/38
f 150/231/38 38/77/38 151/232/38
f 151/232/38 38/77/38 37/74/38
f 151/232/38 37/74/38 152/194/38
f 152/194/38 37/74/38 36/73/38
usemtl Powder_Coat_-_Rough_(White)
f 1/73/38 35/74/38 2/75/38
f 2/75/38 35/74/38 3/76/38
f 3/76/38 35/74/38 34/77/38
f 3/76/38 34/77/38 4/78/38
f 4/78/38 34/77/38 33/79/38
f 4/78/38 33/79/38 5/80/38
f 5/80/38 33/79/38 6/81/38
f 6/81/38 33/79/38 7/82/38
f 7/82/38 33/79/38 8/83/38
f 8/83/38 33/79/38 9/84/38
f 9/84/38 33/79/38 10/85/38
f 10/85/38 33/79/38 11/86/38
f 11/86/38 33/79/38 12/87/38
f 12/87/38 33/79/38 13/88/38
f 13/88/38 33/79/38 14/89/38
f 14/89/38 33/79/38 32/90/38
f 14/89/38 32/90/38 15/91/38
f 15/91/38 32/90/38 16/92/38
f 16/92/38 32/90/38 17/93/38
f 17/93/38 32/90/38 18/94/38
f 18/94/38 32/90/38 19/95/38
f 19/95/38 32/90/38 20/96/38
f 20/96/38 32/90/38 21/97/38
f 21/97/38 32/90/38 22/98/38
f 22/98/38 32/90/38 23/99/38
f 23/99/38 32/90/38 31/100/38
f 23/99/38 31/100/38 24/101/38
f 24/101/38 31/100/38 30/102/38
f 24/101/38 30/102/38 25/103/38
f 25/103/38 30/102/38 29/104/38
f 25/103/38 29/104/38 26/105/38
f 26/105/38 29/104/38 28/106/38
f 26/105/38 28/106/38 27/107/38
usemtl Steel_-_Satin
f 72/233/80 71/234/80 88/235/80
f 88/235/80 71/234/80 111/236/80
f 88/235/80 111/236/80 110/237/80
f 110/237/80 109/238/80 88/235/80
f 88/235/80 109/238/80 108/239/80
f 88/235/80 108/239/80 107/240/80
f 107/240/80 106/241/80 88/235/80
f 88/235/80 106/241/80 105/242/80
f 88/235/80 105/242/80 104/243/80
f 104/243/80 103/244/80 88/235/80
f 88/235/80 103/244/80 102/245/80
f 88/235/80 102/245/80 101/246/80
f 88/235/80 101/246/80 89/247/80
f 89/247/80 101/246/80 100/248/80
f 89/247/80 100/248/80 99/249/80
f 99/249/80 98/250/80 89/247/80
f 89/247/80 98/250/80 97/251/80
f 89/247/80 97/251/80 96/252/80
f 96/252/80 95/253/80 89/247/80
f 89/247/80 95/253/80 94/254/80
f 89/247/80 94/254/80 90/255/80
f 90/255/80 94/254/80 93/256/80
f 90/255/80 93/256/80 91/257/80
f 91/257/80 93/256/80 92/258/81
f 87/259/80 75/260/80 88/235/80
f 88/235/80 75/260/80 74/261/80
f 88/235/80 74/261/80 73/262/80
f 75/260/80 87/259/80 76/263/80
f 76/263/80 87/259/80 86/264/80
f 76/263/80 86/264/80 77/265/80
f 77/265/80 86/264/80 85/266/80
f 77/265/80 85/266/80 78/267/80
f 78/267/80 85/266/80 84/268/80
f 78/267/80 84/268/80 79/269/80
f 79/269/80 84/268/80 83/270/80
f 79/269/80 83/270/80 80/271/80
f 80/271/80 83/270/80 82/272/80
f 80/271/80 82/272/80 81/273/80
f 73/262/80 72/233/80 88/235/80
