# Blender 5.2.0 LTS
# www.blender.org
mtllib waregv_lidar.mtl
o WareGV_Lidar
v 2.377146 0.361603 0.007980
v 2.342954 0.361603 -0.393747
v 2.241361 0.361603 -0.783916
v 2.075291 0.361603 -1.151306
v 1.849521 0.361603 -1.485344
v 1.570545 0.361603 -1.776423
v 1.246390 0.361603 -2.016165
v 0.886381 0.361603 -2.197680
v 0.500874 0.361603 -2.315739
v 0.100960 0.361603 -2.366949
v -0.301856 0.361603 -2.349838
v -0.695987 0.361603 -2.264896
v -1.070093 0.361603 -2.114569
v -1.413412 0.361603 -1.903179
v -1.716067 0.361603 -1.636808
v -1.969353 0.361603 -1.323120
v -2.165981 0.361603 -0.971138
v -2.300297 0.361603 -0.590990
v -2.368434 0.361603 -0.193609
v -2.368434 0.361603 0.209570
v -2.300297 0.361603 0.606951
v -2.165981 0.361603 0.987099
v -1.969353 0.361603 1.339081
v -1.716067 0.361603 1.652769
v -1.413412 0.361603 1.919140
v -1.070093 0.361603 2.130529
v -0.695987 0.361603 2.280857
v -0.301856 0.361603 2.365799
v 0.100960 0.361603 2.382910
v 0.500874 0.361603 2.331699
v 0.886381 0.361603 2.213640
v 1.246390 0.361603 2.032125
v 1.570545 0.361603 1.792383
v 1.849521 0.361603 1.501305
v 2.075291 0.361603 1.167267
v 2.241361 0.361603 0.799877
v 2.342954 0.361603 0.409708
v 1.877146 0.861603 0.007980
v 1.843225 0.861603 0.363218
v 1.742687 0.861603 0.705618
v 1.579167 0.861603 1.022802
v 1.358575 0.861603 1.303308
v 1.088882 0.861603 1.536997
v 0.779838 0.861603 1.715424
v 0.442610 0.861603 1.832140
v 0.089389 0.861603 1.882927
v -0.267061 0.861603 1.865946
v -0.613856 0.861603 1.781815
v -0.938462 0.861603 1.633572
v -1.229147 0.861603 1.426577
v -1.475404 0.861603 1.168310
v -1.668334 0.861603 0.868105
v -1.800963 0.861603 0.536812
v -1.868498 0.861603 0.186407
v -1.868498 0.861603 -0.170446
v -1.800963 0.861603 -0.520851
v -1.668334 0.861603 -0.852144
v -1.475404 0.861603 -1.152349
v -1.229147 0.861603 -1.410616
v -0.938462 0.861603 -1.617611
v -0.613856 0.861603 -1.765854
v -0.267061 0.861603 -1.849985
v 0.089389 0.861603 -1.866966
v 0.442610 0.861603 -1.816179
v 0.779838 0.861603 -1.699463
v 1.088882 0.861603 -1.521036
v 1.358575 0.861603 -1.287348
v 1.579167 0.861603 -1.006842
v 1.742687 0.861603 -0.689657
v 1.843225 0.861603 -0.347258
v -2.359961 0.491013 0.007980
v -2.310010 0.611603 0.007980
v -2.230551 0.715157 0.007980
v -2.126998 0.794613 0.007980
v -2.006407 0.844566 0.007980
v -1.561040 0.844566 1.268492
v 1.193194 0.844566 1.621185
v 1.193194 0.844566 -1.605225
v -1.561040 0.844566 -1.252531
v 2.351607 0.491013 -0.192165
v 2.301836 0.611603 -0.187929
v 2.222663 0.715157 -0.181190
v 2.119483 0.794613 -0.172407
v 1.999327 0.844566 -0.162180
v 1.999327 0.844566 0.178141
v 2.119483 0.794613 0.188368
v 2.222663 0.715157 0.197151
v 2.301836 0.611603 0.203890
v 2.351607 0.491013 0.208126
v 2.283957 0.491013 -0.586697
v 2.235619 0.611603 -0.574110
v 2.158723 0.715157 -0.554089
v 2.058511 0.794613 -0.527994
v 1.941812 0.844566 -0.497608
v 2.150605 0.491013 -0.964121
v 2.105089 0.611603 -0.943546
v 2.032683 0.715157 -0.910816
v 1.938322 0.794613 -0.868162
v 1.828437 0.844566 -0.818491
v 1.955385 0.491013 -1.313580
v 1.914001 0.611603 -1.285608
v 1.848168 0.715157 -1.241114
v 1.762373 0.794613 -1.183126
v 1.662463 0.844566 -1.115599
v 1.703915 0.491013 -1.625019
v 1.667854 0.611603 -1.590456
v 1.610487 0.715157 -1.535475
v 1.535726 0.794613 -1.463823
v 1.448665 0.844566 -1.380383
v 1.403429 0.491013 -1.889481
v 1.373727 0.611603 -1.849321
v 1.326478 0.715157 -1.785435
v 1.264901 0.794613 -1.702179
v 1.062570 0.491013 -2.099356
v 1.040083 0.611603 -2.054754
v 1.004310 0.715157 -1.983803
v 0.957690 0.794613 -1.891336
v 0.903399 0.844566 -1.783659
v 0.691146 0.491013 -2.248606
v 0.676519 0.611603 -2.200846
v 0.653252 0.715157 -2.124870
v 0.622929 0.794613 -2.025854
v 0.587617 0.844566 -1.910551
v 0.299840 0.491013 -2.332939
v 0.293496 0.611603 -2.283394
v 0.283403 0.715157 -2.204578
v 0.270250 0.794613 -2.101862
v 0.254933 0.844566 -1.982250
v -0.100089 0.491013 -2.349928
v -0.097969 0.611603 -2.300022
v -0.094596 0.715157 -2.220634
v -0.090201 0.794613 -2.117174
v -0.085083 0.844566 -1.996693
v -0.497136 0.491013 -2.299084
v -0.486613 0.611603 -2.250256
v -0.469872 0.715157 -2.172579
v -0.448056 0.794613 -2.071350
v -0.422650 0.844566 -1.953466
v -0.879880 0.491013 -2.181870
v -0.861256 0.611603 -2.135521
v -0.831629 0.715157 -2.061792
v -0.793018 0.794613 -1.965706
v -0.748056 0.844566 -1.853811
v -1.237309 0.491013 -2.001657
v -1.211120 0.611603 -1.959124
v -1.169459 0.715157 -1.891462
v -1.115165 0.794613 -1.803284
v -1.051939 0.844566 -1.700596
v -1.559141 0.491013 -1.763632
v -1.526140 0.611603 -1.726135
v -1.473644 0.715157 -1.666487
v -1.405229 0.794613 -1.588753
v -1.325557 0.844566 -1.498230
v -1.836117 0.491013 -1.474640
v -1.797254 0.611603 -1.443260
v -1.735432 0.715157 -1.393343
v -1.654864 0.794613 -1.328289
v -2.060270 0.491013 -1.142996
v -2.016662 0.611603 -1.118635
v -1.947293 0.715157 -1.079885
v -1.856890 0.794613 -1.029381
v -1.751612 0.844566 -0.970572
v -2.225149 0.491013 -0.778240
v -2.178052 0.611603 -0.761600
v -2.103132 0.715157 -0.735130
v -2.005494 0.794613 -0.700632
v -1.891792 0.844566 -0.660460
v -2.326014 0.491013 -0.390867
v -2.276782 0.611603 -0.382425
v -2.198466 0.715157 -0.368998
v -2.096402 0.794613 -0.351496
v -1.977546 0.844566 -0.331116
v -2.326014 0.491013 0.406828
v -2.276782 0.611603 0.398386
v -2.198466 0.715157 0.384958
v -2.096402 0.794613 0.367456
v -1.977546 0.844566 0.347076
v -2.225149 0.491013 0.794201
v -2.178052 0.611603 0.777561
v -2.103132 0.715157 0.751091
v -2.005494 0.794613 0.716593
v -1.891792 0.844566 0.676420
v -2.060270 0.491013 1.158957
v -2.016662 0.611603 1.134596
v -1.947293 0.715157 1.095846
v -1.856890 0.794613 1.045341
v -1.751612 0.844566 0.986532
v -1.836117 0.491013 1.490601
v -1.797254 0.611603 1.459221
v -1.735432 0.715157 1.409304
v -1.654864 0.794613 1.344250
v -1.559141 0.491013 1.779593
v -1.526140 0.611603 1.742096
v -1.473644 0.715157 1.682447
v -1.405229 0.794613 1.604713
v -1.325557 0.844566 1.514191
v -1.237309 0.491013 2.017618
v -1.211120 0.611603 1.975084
v -1.169459 0.715157 1.907423
v -1.115165 0.794613 1.819244
v -1.051939 0.844566 1.716557
v -0.879880 0.491013 2.197830
v -0.861256 0.611603 2.151482
v -0.831629 0.715157 2.077753
v -0.793018 0.794613 1.981667
v -0.748056 0.844566 1.869772
v -0.497136 0.491013 2.315044
v -0.486613 0.611603 2.266216
v -0.469872 0.715157 2.188540
v -0.448056 0.794613 2.087311
v -0.422650 0.844566 1.969427
v -0.100089 0.491013 2.365889
v -0.097969 0.611603 2.315983
v -0.094596 0.715157 2.236595
v -0.090201 0.794613 2.133135
v -0.085083 0.844566 2.012653
v 0.299840 0.491013 2.348900
v 0.293496 0.611603 2.299355
v 0.283403 0.715157 2.220539
v 0.270250 0.794613 2.117823
v 0.254933 0.844566 1.998211
v 0.691146 0.491013 2.264566
v 0.676519 0.611603 2.216806
v 0.653252 0.715157 2.140831
v 0.622929 0.794613 2.041815
v 0.587617 0.844566 1.926512
v 1.062570 0.491013 2.115316
v 1.040083 0.611603 2.070715
v 1.004310 0.715157 1.999763
v 0.957690 0.794613 1.907297
v 0.903399 0.844566 1.799620
v 1.403429 0.491013 1.905441
v 1.373727 0.611603 1.865282
v 1.326478 0.715157 1.801395
v 1.264901 0.794613 1.718140
v 1.703915 0.491013 1.640980
v 1.667854 0.611603 1.606417
v 1.610487 0.715157 1.551435
v 1.535726 0.794613 1.479784
v 1.448665 0.844566 1.396343
v 1.955385 0.491013 1.329540
v 1.914001 0.611603 1.301569
v 1.848168 0.715157 1.257074
v 1.762373 0.794613 1.199087
v 1.662463 0.844566 1.131559
v 2.150605 0.491013 0.980082
v 2.105089 0.611603 0.959507
v 2.032683 0.715157 0.926777
v 1.938322 0.794613 0.884123
v 1.828437 0.844566 0.834452
v 2.283957 0.491013 0.602657
v 2.235619 0.611603 0.590071
v 2.158723 0.715157 0.570049
v 2.058511 0.794613 0.543955
v 1.941812 0.844566 0.513569
v 2.377146 -1.203400 0.007980
v 2.342954 -1.203400 -0.393747
v 2.241361 -1.203400 -0.783916
v 2.075291 -1.203400 -1.151306
v 1.849521 -1.203400 -1.485344
v 1.570545 -1.203400 -1.776423
v 1.246390 -1.203400 -2.016165
v 0.886381 -1.203400 -2.197680
v 0.500874 -1.203400 -2.315739
v 0.100960 -1.203400 -2.366949
v -0.301856 -1.203400 -2.349838
v -0.695987 -1.203400 -2.264896
v -1.070093 -1.203400 -2.114569
v -1.413412 -1.203400 -1.903179
v -1.716067 -1.203400 -1.636808
v -1.969353 -1.203400 -1.323120
v -2.165981 -1.203400 -0.971138
v -2.300297 -1.203400 -0.590990
v -2.368434 -1.203400 -0.193609
v -2.368434 -1.203400 0.209570
v -2.300297 -1.203400 0.606951
v -2.165981 -1.203400 0.987099
v -1.969353 -1.203400 1.339081
v -1.716067 -1.203400 1.652769
v -1.413412 -1.203400 1.919140
v -1.070093 -1.203400 2.130529
v -0.695987 -1.203400 2.280857
v -0.301856 -1.203400 2.365799
v 0.100960 -1.203400 2.382910
v 0.500874 -1.203400 2.331699
v 0.886381 -1.203400 2.213640
v 1.246390 -1.203400 2.032125
v 1.570545 -1.203400 1.792383
v 1.849521 -1.203400 1.501305
v 2.075291 -1.203400 1.167267
v 2.241361 -1.203400 0.799877
v 2.342954 -1.203400 0.409708
v -2.780388 -1.203400 -1.821558
v -2.746314 -1.203400 -2.080378
v -2.646413 -1.203400 -2.321558
v -2.487495 -1.203400 -2.528666
v -2.280388 -1.203400 -2.687584
v -2.039207 -1.203400 -2.787483
v -1.780388 -1.203400 -2.821558
v -1.780388 -3.268398 -2.821558
v -2.039207 -3.268398 -2.787483
v -2.280388 -3.268398 -2.687584
v -2.487495 -3.268398 -2.528666
v -2.646413 -3.268398 -2.321558
v -2.746314 -3.268398 -2.080378
v -2.780388 -3.268398 -1.821558
v 1.779612 -3.268398 -2.821558
v 2.038431 -3.268398 -2.787483
v 2.279612 -3.268398 -2.687584
v 2.486719 -3.268398 -2.528666
v 2.645638 -3.268398 -2.321558
v 2.745538 -3.268398 -2.080378
v 2.779612 -3.268398 -1.821558
v 2.779612 -3.268398 1.738441
v 2.745538 -3.268398 1.997261
v 2.645638 -3.268398 2.238441
v 2.486719 -3.268398 2.445549
v 2.279612 -3.268398 2.604467
v 2.038431 -3.268398 2.704369
v 1.779612 -3.268398 2.738441
v -1.780388 -3.268398 2.738441
v -2.039207 -3.268398 2.704369
v -2.280388 -3.268398 2.604467
v -2.487495 -3.268398 2.445549
v -2.646413 -3.268398 2.238441
v -2.746314 -3.268398 1.997261
v -2.780388 -3.268398 1.738441
v 1.779612 -1.203400 -2.821558
v 2.038431 -1.203400 -2.787483
v 2.279612 -1.203400 -2.687584
v 2.486719 -1.203400 -2.528666
v 2.645638 -1.203400 -2.321558
v 2.745538 -1.203400 -2.080378
v 2.779612 -1.203400 -1.821558
v -1.780388 -1.203400 2.738441
v -2.039207 -1.203400 2.704369
v -2.280388 -1.203400 2.604467
v -2.487495 -1.203400 2.445549
v -2.646413 -1.203400 2.238441
v -2.746314 -1.203400 1.997261
v -2.780388 -1.203400 1.738441
v 1.779612 -1.203400 2.738441
v 2.779612 -1.203400 1.738441
v 2.745538 -1.203400 1.997261
v 2.645638 -1.203400 2.238441
v 2.486719 -1.203400 2.445549
v 2.279612 -1.203400 2.604467
v 2.038431 -1.203400 2.704369
vn 0.9856 -0.0000 -0.1690
vn 0.9624 0.2588 -0.0819
vn 1.0000 -0.0000 -0.0000
vn 0.9624 0.2588 0.0819
vn 0.9856 -0.0000 0.1690
vn 0.9348 0.2588 0.2434
vn 0.9429 -0.0000 0.3331
vn 0.8802 0.2588 0.3979
vn 0.8730 -0.0000 0.4877
vn 0.8003 0.2588 0.5409
vn 0.7780 -0.0000 0.6282
vn 0.6974 0.2588 0.6684
vn 0.6607 -0.0000 0.7507
vn 0.5744 0.2588 0.7766
vn 0.5243 -0.0000 0.8515
vn 0.4349 0.2588 0.8625
vn 0.3729 -0.0000 0.9279
vn 0.2828 0.2588 0.9236
vn 0.2107 -0.0000 0.9776
vn 0.1227 0.2588 0.9581
vn 0.0424 -0.0000 0.9991
vn -0.0410 0.2588 0.9651
vn -0.1270 -0.0000 0.9919
vn -0.2035 0.2588 0.9442
vn -0.2928 -0.0000 0.9562
vn -0.3602 0.2588 0.8963
vn -0.4502 -0.0000 0.8929
vn -0.5064 0.2588 0.8225
vn -0.5946 -0.0000 0.8040
vn -0.6382 0.2588 0.7251
vn -0.7220 -0.0000 0.6919
vn -0.7515 0.2588 0.6068
vn -0.8285 -0.0000 0.5600
vn -0.8433 0.2588 0.4711
vn -0.9112 -0.0000 0.4119
vn -0.9108 0.2588 0.3218
vn -0.9677 -0.0000 0.2520
vn -0.9520 0.2588 0.1632
vn -0.9964 -0.0000 0.0848
vn -0.9659 0.2588 -0.0000
vn -0.9964 -0.0000 -0.0848
vn -0.9520 0.2588 -0.1632
vn -0.9677 -0.0000 -0.2520
vn -0.9108 0.2588 -0.3218
vn -0.9112 -0.0000 -0.4119
vn -0.8433 0.2588 -0.4711
vn -0.8285 -0.0000 -0.5600
vn -0.7515 0.2588 -0.6068
vn -0.7220 -0.0000 -0.6919
vn -0.6382 0.2588 -0.7251
vn -0.5946 -0.0000 -0.8040
vn -0.5064 0.2588 -0.8225
vn -0.4502 -0.0000 -0.8929
vn -0.3602 0.2588 -0.8963
vn -0.2928 -0.0000 -0.9562
vn -0.2035 0.2588 -0.9442
vn -0.1270 -0.0000 -0.9919
vn -0.0410 0.2588 -0.9651
vn 0.0424 -0.0000 -0.9991
vn 0.1227 0.2588 -0.9581
vn 0.2107 -0.0000 -0.9776
vn 0.2828 0.2588 -0.9236
vn 0.3729 -0.0000 -0.9279
vn 0.4349 0.2588 -0.8625
vn 0.5243 -0.0000 -0.8515
vn 0.5744 0.2588 -0.7766
vn 0.6607 -0.0000 -0.7507
vn 0.6974 0.2588 -0.6684
vn 0.7780 -0.0000 -0.6282
vn 0.8003 0.2588 -0.5409
vn 0.8730 -0.0000 -0.4877
vn 0.8802 0.2588 -0.3979
vn 0.9429 -0.0000 -0.3331
vn 0.9348 0.2588 -0.2434
vn -0.0000 1.0000 -0.0000
vn 0.2579 0.9659 0.0220
vn 0.2579 0.9659 -0.0220
vn 0.2505 0.9659 -0.0652
vn 0.2359 0.9659 -0.1066
vn 0.2144 0.9659 -0.1449
vn 0.1869 0.9659 -0.1791
vn 0.1539 0.9659 -0.2081
vn 0.3610 0.8660 -0.3460
vn 0.2973 0.8660 -0.4020
vn 0.5105 0.7071 -0.4893
vn 0.4205 0.7071 -0.5685
vn 0.6252 0.5000 -0.5992
vn 0.5150 0.5000 -0.6963
vn 0.2505 0.9659 0.0652
vn 0.2359 0.9659 0.1066
vn 0.2144 0.9659 0.1449
vn 0.1869 0.9659 0.1791
vn 0.1539 0.9659 0.2081
vn 0.2973 0.8660 0.4020
vn 0.2251 0.8660 0.4465
vn 0.3183 0.7071 0.6314
vn 0.2071 0.7071 0.6761
vn 0.2536 0.4999 0.8281
vn 0.1100 0.4999 0.8590
vn 0.1165 0.9659 0.2311
vn 0.1464 0.8660 0.4781
vn 0.0898 0.7071 0.7014
vn -0.0368 0.5000 0.8653
vn 0.0758 0.9659 0.2475
vn 0.0635 0.8660 0.4960
vn -0.0300 0.7071 0.7065
vn -0.1825 0.5000 0.8466
vn 0.0329 0.9659 0.2567
vn -0.0212 0.8660 0.4996
vn -0.1490 0.7071 0.6912
vn -0.3229 0.5000 0.8036
vn -0.0110 0.9659 0.2586
vn -0.1053 0.8660 0.4888
vn -0.2637 0.7071 0.6561
vn -0.4541 0.5000 0.7375
vn -0.0545 0.9659 0.2530
vn -0.1864 0.8660 0.4640
vn -0.3708 0.7071 0.6022
vn -0.5722 0.5000 0.6501
vn -0.0965 0.9659 0.2402
vn -0.2622 0.8660 0.4258
vn -0.4672 0.7071 0.5308
vn -0.6738 0.5000 0.5441
vn -0.1357 0.9659 0.2204
vn -0.3303 0.8660 0.3753
vn -0.5502 0.7071 0.4442
vn -0.7561 0.5000 0.4224
vn -0.1710 0.9659 0.1943
vn -0.3890 0.8660 0.3141
vn -0.6173 0.7071 0.3449
vn -0.8166 0.5000 0.2885
vn -0.2014 0.9659 0.1626
vn -0.2260 0.9659 0.1262
vn -0.2441 0.9659 0.0862
vn -0.2551 0.9659 0.0437
vn -0.2589 0.9659 -0.0000
vn -0.2551 0.9659 -0.0437
vn -0.2440 0.9659 -0.0862
vn -0.2260 0.9659 -0.1262
vn -0.2014 0.9659 -0.1626
vn -0.1710 0.9659 -0.1943
vn -0.1357 0.9659 -0.2204
vn -0.2622 0.8660 -0.4258
vn -0.1864 0.8660 -0.4640
vn -0.2636 0.7071 -0.6561
vn -0.1490 0.7071 -0.6912
vn -0.1825 0.4999 -0.8466
vn -0.0368 0.5000 -0.8653
vn -0.0965 0.9659 -0.2402
vn -0.1053 0.8660 -0.4888
vn -0.0300 0.7071 -0.7065
vn 0.1100 0.4999 -0.8590
vn -0.0545 0.9659 -0.2530
vn -0.0212 0.8660 -0.4996
vn 0.0898 0.7071 -0.7014
vn 0.2536 0.5000 -0.8281
vn -0.0110 0.9659 -0.2586
vn 0.0635 0.8660 -0.4959
vn 0.2071 0.7071 -0.6761
vn 0.3899 0.5000 -0.7733
vn 0.0329 0.9659 -0.2567
vn 0.1464 0.8660 -0.4781
vn 0.3183 0.7071 -0.6314
vn 0.0758 0.9659 -0.2475
vn 0.2251 0.8660 -0.4465
vn 0.1165 0.9659 -0.2311
vn -0.8660 0.5000 -0.0000
vn -0.8536 0.5000 -0.1464
vn -0.8166 0.5000 -0.2885
vn -0.7561 0.5000 -0.4224
vn -0.6738 0.5000 -0.5441
vn -0.5722 0.5000 -0.6501
vn -0.4541 0.5000 -0.7375
vn -0.3229 0.5000 -0.8036
vn -0.7071 0.7071 -0.0000
vn -0.6969 0.7071 -0.1195
vn -0.6667 0.7071 -0.2356
vn -0.6173 0.7071 -0.3449
vn -0.5502 0.7071 -0.4442
vn -0.4672 0.7071 -0.5308
vn -0.3707 0.7071 -0.6021
vn -0.8536 0.5000 0.1464
vn -0.5000 0.8660 -0.0000
vn -0.4928 0.8660 -0.0845
vn -0.4714 0.8660 -0.1666
vn -0.4365 0.8660 -0.2438
vn -0.3890 0.8660 -0.3141
vn -0.3303 0.8660 -0.3753
vn -0.6970 0.7071 0.1195
vn -0.6667 0.7071 0.2356
vn -0.4928 0.8660 0.0845
vn -0.4714 0.8660 0.1666
vn -0.4365 0.8660 0.2439
vn 0.8629 0.5000 -0.0734
vn 0.8629 0.5000 0.0734
vn 0.8381 0.5000 0.2182
vn 0.7892 0.5000 0.3567
vn 0.7175 0.5000 0.4850
vn 0.6252 0.5000 0.5992
vn 0.5150 0.5000 0.6963
vn 0.3899 0.5000 0.7733
vn 0.7046 0.7071 -0.0600
vn 0.7046 0.7071 0.0600
vn 0.6843 0.7071 0.1782
vn 0.6443 0.7071 0.2913
vn 0.5859 0.7071 0.3960
vn 0.5105 0.7071 0.4893
vn 0.4205 0.7071 0.5685
vn 0.8381 0.5000 -0.2182
vn 0.7892 0.5000 -0.3567
vn 0.7175 0.5000 -0.4850
vn 0.4982 0.8660 -0.0424
vn 0.4982 0.8660 0.0424
vn 0.4839 0.8660 0.1260
vn 0.4556 0.8660 0.2060
vn 0.4142 0.8660 0.2800
vn 0.3610 0.8660 0.3460
vn 0.6843 0.7071 -0.1782
vn 0.6443 0.7071 -0.2913
vn 0.5858 0.7071 -0.3960
vn 0.4838 0.8660 -0.1260
vn 0.4556 0.8660 -0.2060
vn 0.4143 0.8660 -0.2800
vn -1.0000 -0.0000 -0.0000
vn -0.9659 -0.0000 -0.2588
vn -0.8660 -0.0000 -0.5000
vn -0.7071 -0.0000 -0.7071
vn -0.5000 -0.0000 -0.8660
vn -0.2588 -0.0000 -0.9659
vn -0.0000 -0.0000 -1.0000
vn -0.0000 -1.0000 -0.0000
vn 0.2588 -0.0000 -0.9659
vn 0.5000 -0.0000 -0.8660
vn 0.7071 -0.0000 -0.7071
vn 0.8660 -0.0000 -0.5000
vn 0.9659 -0.0000 -0.2588
vn -0.0000 -0.0000 1.0000
vn -0.2588 -0.0000 0.9659
vn -0.5000 -0.0000 0.8660
vn -0.7071 -0.0000 0.7071
vn -0.8660 -0.0000 0.5000
vn -0.9659 -0.0000 0.2588
vn 0.9659 -0.0000 0.2588
vn 0.8660 -0.0000 0.5000
vn 0.7071 -0.0000 0.7071
vn 0.5000 -0.0000 0.8660
vn 0.2588 -0.0000 0.9659
vt -0.000000 0.378795
vt -0.130900 0.189398
vt -0.000000 0.000000
vt -0.130900 -0.189398
vt -0.000000 -0.378795
vt -0.130900 -0.568193
vt -0.000000 -0.757591
vt -0.130900 -0.946989
vt -0.000000 -1.136386
vt -0.130900 -1.325784
vt -0.000000 -1.515182
vt -0.130900 -1.704579
vt -0.000000 -1.893977
vt -0.130900 -2.083375
vt -0.000000 -2.272773
vt -0.130900 -2.462170
vt -0.000000 -2.651568
vt -0.130900 -2.840966
vt -0.000000 -3.030363
vt -0.130900 -3.219761
vt -0.000000 -3.409159
vt -0.130900 -3.598557
vt -0.000000 -3.787954
vt -0.130900 -3.977352
vt -0.000000 -4.166750
vt -0.130900 -4.356147
vt -0.000000 -4.545545
vt -0.130900 -4.734943
vt -0.000000 -4.924341
vt -0.130900 -5.113738
vt -0.000000 -5.303136
vt -0.130900 -5.492534
vt -0.000000 -5.681931
vt -0.130900 -5.871329
vt -0.000000 -6.060727
vt -0.130900 -6.250125
vt -0.000000 -6.439522
vt -0.130900 -6.628920
vt -0.000000 -6.818318
vt -0.130900 -7.007715
vt 0.000000 -7.197113
vt -0.000000 6.818318
vt -0.130900 7.007715
vt -0.130900 6.628920
vt -0.000000 6.439522
vt -0.130900 6.250125
vt -0.000000 6.060727
vt -0.130900 5.871329
vt -0.000000 5.681931
vt -0.130900 5.492534
vt -0.000000 5.303136
vt -0.130900 5.113738
vt -0.000000 4.924341
vt -0.130900 4.734943
vt -0.000000 4.545545
vt -0.130900 4.356147
vt -0.000000 4.166750
vt -0.130900 3.977352
vt -0.000000 3.787954
vt -0.130900 3.598557
vt -0.000000 3.409159
vt -0.130900 3.219761
vt -0.000000 3.030363
vt -0.130900 2.840966
vt -0.000000 2.651568
vt -0.130900 2.462170
vt -0.000000 2.272773
vt -0.130900 2.083375
vt -0.000000 1.893977
vt -0.130900 1.704579
vt -0.000000 1.515182
vt -0.130900 1.325784
vt -0.000000 1.136386
vt -0.130900 0.946989
vt -0.000000 0.757591
vt -0.130900 0.568193
vt -0.785398 -0.424710
vt -0.654498 -0.189398
vt -0.785398 0.000000
vt -0.654498 0.189398
vt -0.785398 0.424710
vt -0.654498 0.568193
vt -0.785398 0.849420
vt -0.654498 0.946989
vt -0.785398 1.274130
vt -0.654498 1.325784
vt -0.785398 1.698840
vt -0.654498 1.704579
vt -0.654498 2.083375
vt -0.523599 1.704579
vt -0.523599 2.083375
vt -0.392699 1.704579
vt -0.392699 2.083375
vt -0.261799 1.704579
vt -0.261799 2.083375
vt -0.654498 -0.568193
vt -0.785398 -0.849420
vt -0.654498 -0.946989
vt -0.785398 -1.274130
vt -0.654498 -1.325784
vt -0.785398 -1.698840
vt -0.654498 -1.704579
vt -0.654498 -2.083375
vt -0.523599 -2.083375
vt -0.523599 -2.462170
vt -0.392699 -2.462170
vt -0.392699 -2.840966
vt -0.261799 -2.840966
vt -0.261799 -3.219761
vt -0.785398 -2.123550
vt -0.654498 -2.462170
vt -0.523599 -2.840966
vt -0.392699 -3.219761
vt -0.261799 -3.598557
vt -0.785398 -2.548260
vt -0.654498 -2.840966
vt -0.523599 -3.219761
vt -0.392699 -3.598557
vt -0.261799 -3.977352
vt -0.785398 -2.972970
vt -0.654498 -3.219761
vt -0.523599 -3.598557
vt -0.392699 -3.977352
vt -0.261799 -4.356147
vt -0.785398 -3.397680
vt -0.654498 -3.598557
vt -0.523599 -3.977352
vt -0.392699 -4.356147
vt -0.261799 -4.734943
vt -0.785398 -3.822390
vt -0.654498 -3.977352
vt -0.523599 -4.356147
vt -0.392699 -4.734943
vt -0.261799 -5.113738
vt -0.785398 -4.247100
vt -0.654498 -4.356147
vt -0.523599 -4.734943
vt -0.392699 -5.113738
vt -0.261799 -5.492534
vt -0.785398 -4.671810
vt -0.654498 -4.734943
vt -0.523599 -5.113738
vt -0.392699 -5.492534
vt -0.261799 -5.871329
vt -0.785398 -5.096520
vt -0.654498 -5.113738
vt -0.523599 -5.492534
vt -0.392699 -5.871329
vt -0.261799 -6.250125
vt -0.654498 -5.492534
vt -0.785398 -5.521230
vt -0.654498 -5.871329
vt -0.785398 -5.945940
vt -0.654498 -6.250125
vt -0.785398 -6.370650
vt -0.654498 -6.628920
vt -0.785398 -6.795360
vt -0.654498 -7.007715
vt -0.654498 7.007715
vt -0.785398 7.220070
vt -0.785398 6.795360
vt -0.654498 6.628920
vt -0.785398 6.370650
vt -0.654498 6.250125
vt -0.785398 5.945940
vt -0.654498 5.871329
vt -0.785398 5.521230
vt -0.654498 5.492534
vt -0.785398 5.096520
vt -0.654498 5.113738
vt -0.654498 4.734943
vt -0.523599 4.734943
vt -0.523599 4.356147
vt -0.392699 4.356147
vt -0.392699 3.977352
vt -0.261799 3.977352
vt -0.261799 3.598557
vt -0.785398 4.671810
vt -0.654498 4.356147
vt -0.523599 3.977352
vt -0.392699 3.598557
vt -0.261799 3.219761
vt -0.785398 4.247100
vt -0.654498 3.977352
vt -0.523599 3.598557
vt -0.392699 3.219761
vt -0.261799 2.840966
vt -0.785398 3.822390
vt -0.654498 3.598557
vt -0.523599 3.219761
vt -0.392699 2.840966
vt -0.261799 2.462170
vt -0.785398 3.397680
vt -0.654498 3.219761
vt -0.523599 2.840966
vt -0.392699 2.462170
vt -0.785398 2.972970
vt -0.654498 2.840966
vt -0.523599 2.462170
vt -0.785398 2.548260
vt -0.654498 2.462170
vt -0.785398 2.123550
vt -0.261799 7.007715
vt -0.261799 6.628920
vt -0.261799 6.250125
vt -0.261799 5.871329
vt -0.261799 5.492534
vt -0.261799 5.113738
vt -0.261799 4.734943
vt -0.261799 4.356147
vt -0.392699 7.007715
vt -0.392699 6.628920
vt -0.392699 6.250125
vt -0.392699 5.871329
vt -0.392699 5.492534
vt -0.392699 5.113738
vt -0.392699 4.734943
vt -0.261799 -7.007715
vt -0.261799 -6.628920
vt -0.523599 7.007715
vt -0.523599 6.628920
vt -0.523599 6.250125
vt -0.523599 5.871329
vt -0.523599 5.492534
vt -0.523599 5.113738
vt -0.392699 -7.007715
vt -0.392699 -6.628920
vt -0.392699 -6.250125
vt -0.523599 -7.007715
vt -0.523599 -6.628920
vt -0.523599 -6.250125
vt -0.523599 -5.871329
vt -0.261799 0.189398
vt -0.261799 -0.189398
vt -0.261799 -0.568193
vt -0.261799 -0.946989
vt -0.261799 -1.325784
vt -0.261799 -1.704579
vt -0.261799 -2.083375
vt -0.261799 -2.462170
vt -0.392699 0.189398
vt -0.392699 -0.189398
vt -0.392699 -0.568193
vt -0.392699 -0.946989
vt -0.392699 -1.325784
vt -0.392699 -1.704579
vt -0.392699 -2.083375
vt -0.261799 0.568193
vt -0.261799 0.946989
vt -0.261799 1.325784
vt -0.523599 0.189398
vt -0.523599 -0.189398
vt -0.523599 -0.568193
vt -0.523599 -0.946989
vt -0.523599 -1.325784
vt -0.523599 -1.704579
vt -0.392699 0.568193
vt -0.392699 0.946989
vt -0.392699 1.325784
vt -0.523599 0.568193
vt -0.523599 0.946989
vt -0.523599 1.325784
vt -0.000000 -7.064127
vt -1.565000 -7.064127
vt -0.000000 -7.467791
vt -1.565000 -7.467791
vt -0.000000 7.467791
vt -1.565000 7.467791
vt -0.000000 7.064127
vt -1.565000 7.064127
vt -0.000000 6.660462
vt -1.565000 6.660462
vt -0.000000 6.256798
vt -1.565000 6.256798
vt -0.000000 5.853133
vt -1.565000 5.853133
vt -0.000000 5.449469
vt -1.565000 5.449469
vt -0.000000 5.045805
vt -1.565000 5.045805
vt -0.000000 4.642140
vt -1.565000 4.642140
vt -0.000000 4.238476
vt -1.565000 4.238476
vt -0.000000 3.834812
vt -1.565000 3.834812
vt -0.000000 3.431147
vt -1.565000 3.431147
vt -0.000000 3.027483
vt -1.565000 3.027483
vt -0.000000 2.623818
vt -1.565000 2.623818
vt -0.000000 2.220154
vt -1.565000 2.220154
vt -0.000000 1.816490
vt -1.565000 1.816490
vt -0.000000 1.412825
vt -1.565000 1.412825
vt -0.000000 1.009161
vt -1.565000 1.009161
vt -0.000000 0.605497
vt -1.565000 0.605497
vt -0.000000 0.201832
vt -1.565000 0.201832
vt -0.000000 -0.201832
vt -1.565000 -0.201832
vt -0.000000 -0.605497
vt -1.565000 -0.605497
vt -0.000000 -1.009161
vt -1.565000 -1.009161
vt -0.000000 -1.412825
vt -1.565000 -1.412825
vt -0.000000 -1.816490
vt -1.565000 -1.816490
vt -0.000000 -2.220154
vt -1.565000 -2.220154
vt -0.000000 -2.623818
vt -1.565000 -2.623818
vt -0.000000 -3.027483
vt -1.565000 -3.027483
vt -0.000000 -3.431147
vt -1.565000 -3.431147
vt -0.000000 -3.834812
vt -1.565000 -3.834812
vt -0.000000 -4.238476
vt -1.565000 -4.238476
vt -0.000000 -4.642140
vt -1.565000 -4.642140
vt -0.000000 -5.045805
vt -1.565000 -5.045805
vt -0.000000 -5.449469
vt -1.565000 -5.449469
vt -0.000000 -5.853133
vt -1.565000 -5.853133
vt -0.000000 -6.256798
vt -1.565000 -6.256798
vt -0.000000 -6.660462
vt -1.565000 -6.660462
vt -1.843151 0.355238
vt -1.877072 0.000000
vt 1.229221 -1.418596
vt -1.843151 -0.355238
vt -1.742613 -0.697637
vt -1.579093 -1.014822
vt -1.358501 -1.295328
vt -1.088808 -1.529017
vt 0.938536 -1.625592
vt -0.779764 -1.707444
vt 0.613930 -1.773834
vt -0.442536 -1.824160
vt 0.267135 -1.857966
vt -0.089315 -1.874946
vt 1.475478 -1.160329
vt -1.742613 0.697637
vt -1.579093 1.014822
vt -1.358501 1.295328
vt -1.088808 1.529017
vt -0.779764 1.707444
vt -0.442536 1.824160
vt -0.089315 1.874946
vt 0.267135 1.857966
vt 0.613930 1.773834
vt 0.938536 1.625592
vt 1.229221 1.418596
vt 1.475478 1.160329
vt 1.668408 -0.860124
vt 1.668408 0.860124
vt 1.801037 -0.528832
vt 1.801037 0.528832
vt 1.868572 -0.178427
vt 1.868572 0.178427
vt -0.000000 0.785398
vt -2.065000 0.785398
vt -0.000000 0.523599
vt -2.065000 0.523599
vt -0.000000 0.261799
vt -2.065000 0.261799
vt -2.065000 0.000000
vt -0.000000 -0.261799
vt -2.065000 -0.261799
vt -0.000000 -0.523599
vt -2.065000 -0.523599
vt -0.000000 -0.785398
vt -2.065000 -0.785398
vt -2.745926 -2.038819
vt -2.646025 -2.280000
vt -2.780000 -1.780000
vt -2.487107 -2.487107
vt -2.280000 -2.646025
vt -2.038819 -2.745926
vt -1.780000 -2.780000
vt 1.780000 -2.780000
vt 2.038819 -2.745926
vt 2.780000 -1.780000
vt -2.780000 1.780000
vt 2.280000 -2.646025
vt 2.487107 -2.487107
vt 2.646025 -2.280000
vt 2.745926 -2.038819
vt -1.780000 2.780000
vt 2.780000 1.780000
vt 1.780000 2.780000
vt 2.745926 2.038819
vt 2.646025 2.280000
vt 2.487107 2.487107
vt 2.280000 2.646025
vt 2.038819 2.745926
vt -2.038819 2.745926
vt -2.280000 2.646025
vt -2.487107 2.487107
vt -2.646025 2.280000
vt -2.745926 2.038819
vt 4.560000 2.065000
vt 1.000000 2.065000
vt 4.560000 0.000000
vt 1.000000 0.000000
vt -1.413024 1.861621
vt -1.069705 2.073011
vt -0.695599 2.223339
vt -1.715680 1.595250
vt -2.368047 0.152051
vt -2.299909 0.549432
vt -2.165594 0.929581
vt -1.715680 -1.694327
vt -1.968965 -1.380638
vt -2.165594 -1.028657
vt -1.413024 -1.960697
vt -1.069705 -2.172087
vt -0.695599 -2.322415
vt -0.301469 -2.407357
vt 0.101348 -2.424468
vt 0.501261 -2.373257
vt 0.886768 -2.255197
vt 1.246778 -2.073684
vt 1.570933 -1.833940
vt 1.849909 -1.542862
vt 2.075679 -1.208824
vt 2.241749 -0.841435
vt 2.343341 -0.451265
vt 2.377533 -0.049538
vt 2.343341 0.352189
vt 2.241749 0.742359
vt 2.075679 1.109748
vt 1.849909 1.443786
vt 1.570933 1.734864
vt 1.246778 1.974608
vt 0.886768 2.156120
vt 0.501261 2.274181
vt 0.101348 2.325392
vt -0.301469 2.308280
vt -2.299909 -0.648508
vt -2.368047 -0.251128
vt -1.968965 1.281562
s 1
usemtl Powder_Coat_-_Rough_(Black)
f 2/1/1 80/2/2 1/3/3
f 1/3/3 80/2/2 89/4/4
f 1/3/3 89/4/4 37/5/5
f 37/5/5 89/4/4 251/6/6
f 37/5/5 251/6/6 36/7/7
f 36/7/7 251/6/6 246/8/8
f 36/7/7 246/8/8 35/9/9
f 35/9/9 246/8/8 241/10/10
f 35/9/9 241/10/10 34/11/11
f 34/11/11 241/10/10 236/12/12
f 34/11/11 236/12/12 33/13/13
f 33/13/13 236/12/12 232/14/14
f 33/13/13 232/14/14 32/15/15
f 32/15/15 232/14/14 227/16/16
f 32/15/15 227/16/16 31/17/17
f 31/17/17 227/16/16 222/18/18
f 31/17/17 222/18/18 30/19/19
f 30/19/19 222/18/18 217/20/20
f 30/19/19 217/20/20 29/21/21
f 29/21/21 217/20/20 212/22/22
f 29/21/21 212/22/22 28/23/23
f 28/23/23 212/22/22 207/24/24
f 28/23/23 207/24/24 27/25/25
f 27/25/25 207/24/24 202/26/26
f 27/25/25 202/26/26 26/27/27
f 26/27/27 202/26/26 197/28/28
f 26/27/27 197/28/28 25/29/29
f 25/29/29 197/28/28 192/30/30
f 25/29/29 192/30/30 24/31/31
f 24/31/31 192/30/30 188/32/32
f 24/31/31 188/32/32 23/33/33
f 23/33/33 188/32/32 183/34/34
f 23/33/33 183/34/34 22/35/35
f 22/35/35 183/34/34 178/36/36
f 22/35/35 178/36/36 21/37/37
f 21/37/37 178/36/36 173/38/38
f 21/37/37 173/38/38 20/39/39
f 20/39/39 173/38/38 71/40/40
f 20/39/39 71/40/40 19/41/41
f 19/42/41 71/43/40 168/44/42
f 19/42/41 168/44/42 18/45/43
f 18/45/43 168/44/42 163/46/44
f 18/45/43 163/46/44 17/47/45
f 17/47/45 163/46/44 158/48/46
f 17/47/45 158/48/46 16/49/47
f 16/49/47 158/48/46 154/50/48
f 16/49/47 154/50/48 15/51/49
f 15/51/49 154/50/48 149/52/50
f 15/51/49 149/52/50 14/53/51
f 14/53/51 149/52/50 144/54/52
f 14/53/51 144/54/52 13/55/53
f 13/55/53 144/54/52 139/56/54
f 13/55/53 139/56/54 12/57/55
f 12/57/55 139/56/54 134/58/56
f 12/57/55 134/58/56 11/59/57
f 11/59/57 134/58/56 129/60/58
f 11/59/57 129/60/58 10/61/59
f 10/61/59 129/60/58 124/62/60
f 10/61/59 124/62/60 9/63/61
f 9/63/61 124/62/60 119/64/62
f 9/63/61 119/64/62 8/65/63
f 8/65/63 119/64/62 114/66/64
f 8/65/63 114/66/64 7/67/65
f 7/67/65 114/66/64 110/68/66
f 7/67/65 110/68/66 6/69/67
f 6/69/67 110/68/66 105/70/68
f 6/69/67 105/70/68 5/71/69
f 5/71/69 105/70/68 100/72/70
f 5/71/69 100/72/70 4/73/71
f 4/73/71 100/72/70 95/74/72
f 4/73/71 95/74/72 3/75/73
f 3/75/73 95/74/72 90/76/74
f 3/75/73 90/76/74 2/1/1
f 2/1/1 90/76/74 80/2/2
f 39/77/75 85/78/76 38/79/75
f 38/79/75 85/78/76 84/80/77
f 38/79/75 84/80/77 70/81/75
f 70/81/75 84/80/77 94/82/78
f 70/81/75 94/82/78 69/83/75
f 69/83/75 94/82/78 99/84/79
f 69/83/75 99/84/79 68/85/75
f 68/85/75 99/84/79 104/86/80
f 68/85/75 104/86/80 67/87/75
f 67/87/75 104/86/80 109/88/81
f 67/87/75 109/88/81 78/89/82
f 78/89/82 109/88/81 108/90/83
f 78/89/82 108/90/83 113/91/84
f 113/91/84 108/90/83 107/92/85
f 113/91/84 107/92/85 112/93/86
f 112/93/86 107/92/85 106/94/87
f 112/93/86 106/94/87 111/95/88
f 111/95/88 106/94/87 105/70/68
f 111/95/88 105/70/68 110/68/66
f 85/78/76 39/77/75 255/96/89
f 255/96/89 39/77/75 40/97/75
f 255/96/89 40/97/75 250/98/90
f 250/98/90 40/97/75 41/99/75
f 250/98/90 41/99/75 245/100/91
f 245/100/91 41/99/75 42/101/75
f 245/100/91 42/101/75 240/102/92
f 240/102/92 42/101/75 77/103/93
f 240/102/92 77/103/93 235/104/94
f 235/104/94 77/103/93 230/105/95
f 235/104/94 230/105/95 229/106/96
f 229/106/96 230/105/95 224/107/97
f 229/106/96 224/107/97 223/108/98
f 223/108/98 224/107/97 218/109/99
f 223/108/98 218/109/99 217/20/20
f 217/20/20 218/109/99 212/22/22
f 42/101/75 43/110/75 77/103/93
f 77/103/93 43/110/75 231/111/100
f 77/103/93 231/111/100 230/105/95
f 230/105/95 231/111/100 225/112/101
f 230/105/95 225/112/101 224/107/97
f 224/107/97 225/112/101 219/113/102
f 224/107/97 219/113/102 218/109/99
f 218/109/99 219/113/102 213/114/103
f 218/109/99 213/114/103 212/22/22
f 212/22/22 213/114/103 207/24/24
f 43/110/75 44/115/75 231/111/100
f 231/111/100 44/115/75 226/116/104
f 231/111/100 226/116/104 225/112/101
f 225/112/101 226/116/104 220/117/105
f 225/112/101 220/117/105 219/113/102
f 219/113/102 220/117/105 214/118/106
f 219/113/102 214/118/106 213/114/103
f 213/114/103 214/118/106 208/119/107
f 213/114/103 208/119/107 207/24/24
f 207/24/24 208/119/107 202/26/26
f 44/115/75 45/120/75 226/116/104
f 226/116/104 45/120/75 221/121/108
f 226/116/104 221/121/108 220/117/105
f 220/117/105 221/121/108 215/122/109
f 220/117/105 215/122/109 214/118/106
f 214/118/106 215/122/109 209/123/110
f 214/118/106 209/123/110 208/119/107
f 208/119/107 209/123/110 203/124/111
f 208/119/107 203/124/111 202/26/26
f 202/26/26 203/124/111 197/28/28
f 45/120/75 46/125/75 221/121/108
f 221/121/108 46/125/75 216/126/112
f 221/121/108 216/126/112 215/122/109
f 215/122/109 216/126/112 210/127/113
f 215/122/109 210/127/113 209/123/110
f 209/123/110 210/127/113 204/128/114
f 209/123/110 204/128/114 203/124/111
f 203/124/111 204/128/114 198/129/115
f 203/124/111 198/129/115 197/28/28
f 197/28/28 198/129/115 192/30/30
f 46/125/75 47/130/75 216/126/112
f 216/126/112 47/130/75 211/131/116
f 216/126/112 211/131/116 210/127/113
f 210/127/113 211/131/116 205/132/117
f 210/127/113 205/132/117 204/128/114
f 204/128/114 205/132/117 199/133/118
f 204/128/114 199/133/118 198/129/115
f 198/129/115 199/133/118 193/134/119
f 198/129/115 193/134/119 192/30/30
f 192/30/30 193/134/119 188/32/32
f 47/130/75 48/135/75 211/131/116
f 211/131/116 48/135/75 206/136/120
f 211/131/116 206/136/120 205/132/117
f 205/132/117 206/136/120 200/137/121
f 205/132/117 200/137/121 199/133/118
f 199/133/118 200/137/121 194/138/122
f 199/133/118 194/138/122 193/134/119
f 193/134/119 194/138/122 189/139/123
f 193/134/119 189/139/123 188/32/32
f 188/32/32 189/139/123 183/34/34
f 48/135/75 49/140/75 206/136/120
f 206/136/120 49/140/75 201/141/124
f 206/136/120 201/141/124 200/137/121
f 200/137/121 201/141/124 195/142/125
f 200/137/121 195/142/125 194/138/122
f 194/138/122 195/142/125 190/143/126
f 194/138/122 190/143/126 189/139/123
f 189/139/123 190/143/126 184/144/127
f 189/139/123 184/144/127 183/34/34
f 183/34/34 184/144/127 178/36/36
f 49/140/75 50/145/75 201/141/124
f 201/141/124 50/145/75 196/146/128
f 201/141/124 196/146/128 195/142/125
f 195/142/125 196/146/128 191/147/129
f 195/142/125 191/147/129 190/143/126
f 190/143/126 191/147/129 185/148/130
f 190/143/126 185/148/130 184/144/127
f 184/144/127 185/148/130 179/149/131
f 184/144/127 179/149/131 178/36/36
f 178/36/36 179/149/131 173/38/38
f 196/146/128 50/145/75 76/150/132
f 76/150/132 50/145/75 51/151/75
f 76/150/132 51/151/75 187/152/133
f 187/152/133 51/151/75 52/153/75
f 187/152/133 52/153/75 182/154/134
f 182/154/134 52/153/75 53/155/75
f 182/154/134 53/155/75 177/156/135
f 177/156/135 53/155/75 54/157/75
f 177/156/135 54/157/75 75/158/136
f 75/159/136 54/160/75 55/161/75
f 75/159/136 55/161/75 172/162/137
f 172/162/137 55/161/75 56/163/75
f 172/162/137 56/163/75 167/164/138
f 167/164/138 56/163/75 57/165/75
f 167/164/138 57/165/75 162/166/139
f 162/166/139 57/165/75 58/167/75
f 162/166/139 58/167/75 79/168/140
f 79/168/140 58/167/75 59/169/75
f 79/168/140 59/169/75 153/170/141
f 153/170/141 59/169/75 148/171/142
f 153/170/141 148/171/142 147/172/143
f 147/172/143 148/171/142 142/173/144
f 147/172/143 142/173/144 141/174/145
f 141/174/145 142/173/144 136/175/146
f 141/174/145 136/175/146 135/176/147
f 135/176/147 136/175/146 130/177/148
f 135/176/147 130/177/148 129/60/58
f 129/60/58 130/177/148 124/62/60
f 59/169/75 60/178/75 148/171/142
f 148/171/142 60/178/75 143/179/149
f 148/171/142 143/179/149 142/173/144
f 142/173/144 143/179/149 137/180/150
f 142/173/144 137/180/150 136/175/146
f 136/175/146 137/180/150 131/181/151
f 136/175/146 131/181/151 130/177/148
f 130/177/148 131/181/151 125/182/152
f 130/177/148 125/182/152 124/62/60
f 124/62/60 125/182/152 119/64/62
f 60/178/75 61/183/75 143/179/149
f 143/179/149 61/183/75 138/184/153
f 143/179/149 138/184/153 137/180/150
f 137/180/150 138/184/153 132/185/154
f 137/180/150 132/185/154 131/181/151
f 131/181/151 132/185/154 126/186/155
f 131/181/151 126/186/155 125/182/152
f 125/182/152 126/186/155 120/187/156
f 125/182/152 120/187/156 119/64/62
f 119/64/62 120/187/156 114/66/64
f 61/183/75 62/188/75 138/184/153
f 138/184/153 62/188/75 133/189/157
f 138/184/153 133/189/157 132/185/154
f 132/185/154 133/189/157 127/190/158
f 132/185/154 127/190/158 126/186/155
f 126/186/155 127/190/158 121/191/159
f 126/186/155 121/191/159 120/187/156
f 120/187/156 121/191/159 115/192/160
f 120/187/156 115/192/160 114/66/64
f 114/66/64 115/192/160 110/68/66
f 62/188/75 63/193/75 133/189/157
f 133/189/157 63/193/75 128/194/161
f 133/189/157 128/194/161 127/190/158
f 127/190/158 128/194/161 122/195/162
f 127/190/158 122/195/162 121/191/159
f 121/191/159 122/195/162 116/196/163
f 121/191/159 116/196/163 115/192/160
f 115/192/160 116/196/163 111/95/88
f 115/192/160 111/95/88 110/68/66
f 63/193/75 64/197/75 128/194/161
f 128/194/161 64/197/75 123/198/164
f 128/194/161 123/198/164 122/195/162
f 122/195/162 123/198/164 117/199/165
f 122/195/162 117/199/165 116/196/163
f 116/196/163 117/199/165 112/93/86
f 116/196/163 112/93/86 111/95/88
f 64/197/75 65/200/75 123/198/164
f 123/198/164 65/200/75 118/201/166
f 123/198/164 118/201/166 117/199/165
f 117/199/165 118/201/166 113/91/84
f 117/199/165 113/91/84 112/93/86
f 65/200/75 66/202/75 118/201/166
f 118/201/166 66/202/75 78/89/82
f 118/201/166 78/89/82 113/91/84
f 66/202/75 67/87/75 78/89/82
f 71/43/40 72/203/167 168/44/42
f 168/44/42 72/203/167 169/204/168
f 168/44/42 169/204/168 163/46/44
f 163/46/44 169/204/168 164/205/169
f 163/46/44 164/205/169 158/48/46
f 158/48/46 164/205/169 159/206/170
f 158/48/46 159/206/170 154/50/48
f 154/50/48 159/206/170 155/207/171
f 154/50/48 155/207/171 149/52/50
f 149/52/50 155/207/171 150/208/172
f 149/52/50 150/208/172 144/54/52
f 144/54/52 150/208/172 145/209/173
f 144/54/52 145/209/173 139/56/54
f 139/56/54 145/209/173 140/210/174
f 139/56/54 140/210/174 134/58/56
f 134/58/56 140/210/174 135/176/147
f 134/58/56 135/176/147 129/60/58
f 72/203/167 73/211/175 169/204/168
f 169/204/168 73/211/175 170/212/176
f 169/204/168 170/212/176 164/205/169
f 164/205/169 170/212/176 165/213/177
f 164/205/169 165/213/177 159/206/170
f 159/206/170 165/213/177 160/214/178
f 159/206/170 160/214/178 155/207/171
f 155/207/171 160/214/178 156/215/179
f 155/207/171 156/215/179 150/208/172
f 150/208/172 156/215/179 151/216/180
f 150/208/172 151/216/180 145/209/173
f 145/209/173 151/216/180 146/217/181
f 145/209/173 146/217/181 140/210/174
f 140/210/174 146/217/181 141/174/145
f 140/210/174 141/174/145 135/176/147
f 72/218/167 71/40/40 174/219/182
f 174/219/182 71/40/40 173/38/38
f 174/219/182 173/38/38 179/149/131
f 73/211/175 74/220/183 170/212/176
f 170/212/176 74/220/183 171/221/184
f 170/212/176 171/221/184 165/213/177
f 165/213/177 171/221/184 166/222/185
f 165/213/177 166/222/185 160/214/178
f 160/214/178 166/222/185 161/223/186
f 160/214/178 161/223/186 156/215/179
f 156/215/179 161/223/186 157/224/187
f 156/215/179 157/224/187 151/216/180
f 151/216/180 157/224/187 152/225/188
f 151/216/180 152/225/188 146/217/181
f 146/217/181 152/225/188 147/172/143
f 146/217/181 147/172/143 141/174/145
f 73/226/175 72/218/167 175/227/189
f 175/227/189 72/218/167 174/219/182
f 175/227/189 174/219/182 180/228/190
f 180/228/190 174/219/182 179/149/131
f 180/228/190 179/149/131 185/148/130
f 74/220/183 75/159/136 171/221/184
f 171/221/184 75/159/136 172/162/137
f 171/221/184 172/162/137 166/222/185
f 166/222/185 172/162/137 167/164/138
f 166/222/185 167/164/138 161/223/186
f 161/223/186 167/164/138 162/166/139
f 161/223/186 162/166/139 157/224/187
f 157/224/187 162/166/139 79/168/140
f 157/224/187 79/168/140 152/225/188
f 152/225/188 79/168/140 153/170/141
f 152/225/188 153/170/141 147/172/143
f 74/229/183 73/226/175 176/230/191
f 176/230/191 73/226/175 175/227/189
f 176/230/191 175/227/189 181/231/192
f 181/231/192 175/227/189 180/228/190
f 181/231/192 180/228/190 186/232/193
f 186/232/193 180/228/190 185/148/130
f 186/232/193 185/148/130 191/147/129
f 75/158/136 74/229/183 177/156/135
f 177/156/135 74/229/183 176/230/191
f 177/156/135 176/230/191 182/154/134
f 182/154/134 176/230/191 181/231/192
f 182/154/134 181/231/192 187/152/133
f 187/152/133 181/231/192 186/232/193
f 187/152/133 186/232/193 76/150/132
f 76/150/132 186/232/193 191/147/129
f 76/150/132 191/147/129 196/146/128
f 80/2/2 81/233/194 89/4/4
f 89/4/4 81/233/194 88/234/195
f 89/4/4 88/234/195 251/6/6
f 251/6/6 88/234/195 252/235/196
f 251/6/6 252/235/196 246/8/8
f 246/8/8 252/235/196 247/236/197
f 246/8/8 247/236/197 241/10/10
f 241/10/10 247/236/197 242/237/198
f 241/10/10 242/237/198 236/12/12
f 236/12/12 242/237/198 237/238/199
f 236/12/12 237/238/199 232/14/14
f 232/14/14 237/238/199 233/239/200
f 232/14/14 233/239/200 227/16/16
f 227/16/16 233/239/200 228/240/201
f 227/16/16 228/240/201 222/18/18
f 222/18/18 228/240/201 223/108/98
f 222/18/18 223/108/98 217/20/20
f 81/233/194 82/241/202 88/234/195
f 88/234/195 82/241/202 87/242/203
f 88/234/195 87/242/203 252/235/196
f 252/235/196 87/242/203 253/243/204
f 252/235/196 253/243/204 247/236/197
f 247/236/197 253/243/204 248/244/205
f 247/236/197 248/244/205 242/237/198
f 242/237/198 248/244/205 243/245/206
f 242/237/198 243/245/206 237/238/199
f 237/238/199 243/245/206 238/246/207
f 237/238/199 238/246/207 233/239/200
f 233/239/200 238/246/207 234/247/208
f 233/239/200 234/247/208 228/240/201
f 228/240/201 234/247/208 229/106/96
f 228/240/201 229/106/96 223/108/98
f 81/233/194 80/2/2 91/248/209
f 91/248/209 80/2/2 90/76/74
f 91/248/209 90/76/74 96/249/210
f 96/249/210 90/76/74 95/74/72
f 96/249/210 95/74/72 101/250/211
f 101/250/211 95/74/72 100/72/70
f 101/250/211 100/72/70 106/94/87
f 106/94/87 100/72/70 105/70/68
f 82/241/202 83/251/212 87/242/203
f 87/242/203 83/251/212 86/252/213
f 87/242/203 86/252/213 253/243/204
f 253/243/204 86/252/213 254/253/214
f 253/243/204 254/253/214 248/244/205
f 248/244/205 254/253/214 249/254/215
f 248/244/205 249/254/215 243/245/206
f 243/245/206 249/254/215 244/255/216
f 243/245/206 244/255/216 238/246/207
f 238/246/207 244/255/216 239/256/217
f 238/246/207 239/256/217 234/247/208
f 234/247/208 239/256/217 235/104/94
f 234/247/208 235/104/94 229/106/96
f 82/241/202 81/233/194 92/257/218
f 92/257/218 81/233/194 91/248/209
f 92/257/218 91/248/209 97/258/219
f 97/258/219 91/248/209 96/249/210
f 97/258/219 96/249/210 102/259/220
f 102/259/220 96/249/210 101/250/211
f 102/259/220 101/250/211 107/92/85
f 107/92/85 101/250/211 106/94/87
f 83/251/212 84/80/77 86/252/213
f 86/252/213 84/80/77 85/78/76
f 86/252/213 85/78/76 254/253/214
f 254/253/214 85/78/76 255/96/89
f 254/253/214 255/96/89 249/254/215
f 249/254/215 255/96/89 250/98/90
f 249/254/215 250/98/90 244/255/216
f 244/255/216 250/98/90 245/100/91
f 244/255/216 245/100/91 239/256/217
f 239/256/217 245/100/91 240/102/92
f 239/256/217 240/102/92 235/104/94
f 83/251/212 82/241/202 93/260/221
f 93/260/221 82/241/202 92/257/218
f 93/260/221 92/257/218 98/261/222
f 98/261/222 92/257/218 97/258/219
f 98/261/222 97/258/219 103/262/223
f 103/262/223 97/258/219 102/259/220
f 103/262/223 102/259/220 108/90/83
f 108/90/83 102/259/220 107/92/85
f 84/80/77 83/251/212 94/82/78
f 94/82/78 83/251/212 93/260/221
f 94/82/78 93/260/221 99/84/79
f 99/84/79 93/260/221 98/261/222
f 99/84/79 98/261/222 104/86/80
f 104/86/80 98/261/222 103/262/223
f 104/86/80 103/262/223 109/88/81
f 109/88/81 103/262/223 108/90/83
f 257/263/1 2/264/1 256/265/3
f 256/265/3 2/264/1 1/266/3
f 256/267/3 1/268/3 292/269/5
f 292/269/5 1/268/3 37/270/5
f 292/269/5 37/270/5 291/271/7
f 291/271/7 37/270/5 36/272/7
f 291/271/7 36/272/7 290/273/9
f 290/273/9 36/272/7 35/274/9
f 290/273/9 35/274/9 289/275/11
f 289/275/11 35/274/9 34/276/11
f 289/275/11 34/276/11 288/277/13
f 288/277/13 34/276/11 33/278/13
f 288/277/13 33/278/13 287/279/15
f 287/279/15 33/278/13 32/280/15
f 287/279/15 32/280/15 286/281/17
f 286/281/17 32/280/15 31/282/17
f 286/281/17 31/282/17 285/283/19
f 285/283/19 31/282/17 30/284/19
f 285/283/19 30/284/19 284/285/21
f 284/285/21 30/284/19 29/286/21
f 284/285/21 29/286/21 283/287/23
f 283/287/23 29/286/21 28/288/23
f 283/287/23 28/288/23 282/289/25
f 282/289/25 28/288/23 27/290/25
f 282/289/25 27/290/25 281/291/27
f 281/291/27 27/290/25 26/292/27
f 281/291/27 26/292/27 280/293/29
f 280/293/29 26/292/27 25/294/29
f 280/293/29 25/294/29 279/295/31
f 279/295/31 25/294/29 24/296/31
f 279/295/31 24/296/31 278/297/33
f 278/297/33 24/296/31 23/298/33
f 278/297/33 23/298/33 277/299/35
f 277/299/35 23/298/33 22/300/35
f 277/299/35 22/300/35 276/301/37
f 276/301/37 22/300/35 21/302/37
f 276/301/37 21/302/37 275/303/39
f 275/303/39 21/302/37 20/304/39
f 275/303/39 20/304/39 274/305/41
f 274/305/41 20/304/39 19/306/41
f 274/305/41 19/306/41 273/307/43
f 273/307/43 19/306/41 18/308/43
f 273/307/43 18/308/43 272/309/45
f 272/309/45 18/308/43 17/310/45
f 272/309/45 17/310/45 271/311/47
f 271/311/47 17/310/45 16/312/47
f 271/311/47 16/312/47 270/313/49
f 270/313/49 16/312/47 15/314/49
f 270/313/49 15/314/49 269/315/51
f 269/315/51 15/314/49 14/316/51
f 269/315/51 14/316/51 268/317/53
f 268/317/53 14/316/51 13/318/53
f 268/317/53 13/318/53 267/319/55
f 267/319/55 13/318/53 12/320/55
f 267/319/55 12/320/55 266/321/57
f 266/321/57 12/320/55 11/322/57
f 266/321/57 11/322/57 265/323/59
f 265/323/59 11/322/57 10/324/59
f 265/323/59 10/324/59 264/325/61
f 264/325/61 10/324/59 9/326/61
f 264/325/61 9/326/61 263/327/63
f 263/327/63 9/326/61 8/328/63
f 263/327/63 8/328/63 262/329/65
f 262/329/65 8/328/63 7/330/65
f 262/329/65 7/330/65 261/331/67
f 261/331/67 7/330/65 6/332/67
f 261/331/67 6/332/67 260/333/69
f 260/333/69 6/332/67 5/334/69
f 260/333/69 5/334/69 259/335/71
f 259/335/71 5/334/69 4/336/71
f 259/335/71 4/336/71 258/337/73
f 258/337/73 4/336/71 3/338/73
f 258/337/73 3/338/73 257/263/1
f 257/263/1 3/338/73 2/264/1
f 39/339/75 38/340/75 59/341/75
f 59/341/75 38/340/75 70/342/75
f 59/341/75 70/342/75 69/343/75
f 69/343/75 68/344/75 59/341/75
f 59/341/75 68/344/75 67/345/75
f 59/341/75 67/345/75 66/346/75
f 59/341/75 66/346/75 60/347/75
f 60/347/75 66/346/75 65/348/75
f 60/347/75 65/348/75 61/349/75
f 61/349/75 65/348/75 64/350/75
f 61/349/75 64/350/75 62/351/75
f 62/351/75 64/350/75 63/352/75
f 59/341/75 58/353/75 39/339/75
f 39/339/75 58/353/75 40/354/75
f 40/354/75 58/353/75 41/355/75
f 41/355/75 58/353/75 42/356/75
f 42/356/75 58/353/75 43/357/75
f 43/357/75 58/353/75 44/358/75
f 44/358/75 58/353/75 45/359/75
f 45/359/75 58/353/75 46/360/75
f 46/360/75 58/353/75 47/361/75
f 47/361/75 58/353/75 48/362/75
f 48/362/75 58/353/75 49/363/75
f 49/363/75 58/353/75 50/364/75
f 50/364/75 58/353/75 51/365/75
f 51/365/75 58/353/75 57/366/75
f 51/365/75 57/366/75 52/367/75
f 52/367/75 57/366/75 56/368/75
f 52/367/75 56/368/75 53/369/75
f 53/369/75 56/368/75 55/370/75
f 53/369/75 55/370/75 54/371/75
f 306/372/224 293/373/224 305/374/225
f 305/374/225 293/373/224 294/375/225
f 305/374/225 294/375/225 304/376/226
f 304/376/226 294/375/225 295/377/226
f 304/376/226 295/377/226 303/3/227
f 303/3/227 295/377/226 296/378/227
f 303/3/227 296/378/227 302/379/228
f 302/379/228 296/378/227 297/380/228
f 302/379/228 297/380/228 301/381/229
f 301/381/229 297/380/228 298/382/229
f 301/381/229 298/382/229 300/383/230
f 300/383/230 298/382/229 299/384/230
f 305/385/231 304/386/231 306/387/231
f 306/387/231 304/386/231 303/388/231
f 306/387/231 303/388/231 302/389/231
f 302/389/231 301/390/231 306/387/231
f 306/387/231 301/390/231 300/391/231
f 306/387/231 300/391/231 307/392/231
f 308/393/231 313/394/231 307/392/231
f 307/392/231 313/394/231 327/395/231
f 307/392/231 327/395/231 306/387/231
f 308/393/231 309/396/231 313/394/231
f 313/394/231 309/396/231 310/397/231
f 313/394/231 310/397/231 311/398/231
f 311/398/231 312/399/231 313/394/231
f 327/395/231 313/394/231 321/400/231
f 321/400/231 313/394/231 314/401/231
f 321/400/231 314/401/231 320/402/231
f 320/402/231 314/401/231 315/403/231
f 320/402/231 315/403/231 316/404/231
f 316/404/231 317/405/231 320/402/231
f 320/402/231 317/405/231 318/406/231
f 320/402/231 318/406/231 319/407/231
f 322/408/231 323/409/231 321/400/231
f 321/400/231 323/409/231 324/410/231
f 321/400/231 324/410/231 325/411/231
f 325/411/231 326/412/231 321/400/231
f 321/400/231 326/412/231 327/395/231
f 299/413/230 328/414/230 300/415/230
f 300/415/230 328/414/230 307/416/230
f 307/372/230 328/373/230 308/374/232
f 308/374/232 328/373/230 329/375/232
f 308/374/232 329/375/232 309/376/233
f 309/376/233 329/375/232 330/377/233
f 309/376/233 330/377/233 310/3/234
f 310/3/234 330/377/233 331/378/234
f 310/3/234 331/378/234 311/379/235
f 311/379/235 331/378/234 332/380/235
f 311/379/235 332/380/235 312/381/236
f 312/381/236 332/380/235 333/382/236
f 312/381/236 333/382/236 313/383/3
f 313/383/3 333/382/236 334/384/3
f 321/372/237 335/373/237 322/374/238
f 322/374/238 335/373/237 336/375/238
f 322/374/238 336/375/238 323/376/239
f 323/376/239 336/375/238 337/377/239
f 323/376/239 337/377/239 324/3/240
f 324/3/240 337/377/239 338/378/240
f 324/3/240 338/378/240 325/379/241
f 325/379/241 338/378/240 339/380/241
f 325/379/241 339/380/241 326/381/242
f 326/381/242 339/380/241 340/382/242
f 326/381/242 340/382/242 327/383/224
f 327/383/224 340/382/242 341/384/224
f 321/416/237 320/415/237 335/414/237
f 335/414/237 320/415/237 342/413/237
f 314/372/3 343/373/3 315/374/243
f 315/374/243 343/373/3 344/375/243
f 315/374/243 344/375/243 316/376/244
f 316/376/244 344/375/243 345/377/244
f 316/376/244 345/377/244 317/3/245
f 317/3/245 345/377/244 346/378/245
f 317/3/245 346/378/245 318/379/246
f 318/379/246 346/378/245 347/380/246
f 318/379/246 347/380/246 319/381/247
f 319/381/247 347/380/246 348/382/247
f 319/381/247 348/382/247 320/383/237
f 320/383/237 348/382/247 342/384/237
f 334/413/3 343/414/3 313/415/3
f 313/415/3 343/414/3 314/416/3
f 306/416/224 327/415/224 293/414/224
f 293/414/224 327/415/224 341/413/224
f 298/408/75 269/417/75 299/400/75
f 299/400/75 269/417/75 268/418/75
f 299/400/75 268/418/75 267/419/75
f 269/417/75 298/408/75 270/420/75
f 270/420/75 298/408/75 297/409/75
f 270/420/75 297/409/75 296/410/75
f 296/410/75 295/411/75 270/420/75
f 270/420/75 295/411/75 294/412/75
f 270/420/75 294/412/75 293/395/75
f 341/387/75 274/421/75 293/395/75
f 293/395/75 274/421/75 273/422/75
f 293/395/75 273/422/75 272/423/75
f 340/385/75 279/424/75 341/387/75
f 341/387/75 279/424/75 278/425/75
f 341/387/75 278/425/75 277/426/75
f 340/385/75 339/386/75 279/424/75
f 279/424/75 339/386/75 338/388/75
f 279/424/75 338/388/75 337/389/75
f 337/389/75 336/390/75 279/424/75
f 279/424/75 336/390/75 280/427/75
f 280/427/75 336/390/75 335/391/75
f 280/427/75 335/391/75 281/428/75
f 281/428/75 335/391/75 282/429/75
f 282/429/75 335/391/75 283/430/75
f 283/430/75 335/391/75 284/431/75
f 284/431/75 335/391/75 342/392/75
f 284/431/75 342/392/75 285/432/75
f 285/432/75 342/392/75 286/433/75
f 286/433/75 342/392/75 287/434/75
f 287/434/75 342/392/75 288/435/75
f 288/435/75 342/392/75 348/393/75
f 288/435/75 348/393/75 347/396/75
f 347/396/75 346/397/75 288/435/75
f 288/435/75 346/397/75 289/436/75
f 289/436/75 346/397/75 345/398/75
f 289/436/75 345/398/75 344/399/75
f 344/399/75 343/394/75 289/436/75
f 289/436/75 343/394/75 290/437/75
f 290/437/75 343/394/75 291/438/75
f 291/438/75 343/394/75 292/439/75
f 292/439/75 343/394/75 256/440/75
f 256/440/75 343/394/75 334/401/75
f 256/440/75 334/401/75 257/441/75
f 257/441/75 334/401/75 258/442/75
f 258/442/75 334/401/75 259/443/75
f 259/443/75 334/401/75 260/444/75
f 260/444/75 334/401/75 333/403/75
f 260/444/75 333/403/75 332/404/75
f 260/444/75 332/404/75 261/445/75
f 261/445/75 332/404/75 331/405/75
f 261/445/75 331/405/75 330/406/75
f 330/406/75 329/407/75 261/445/75
f 261/445/75 329/407/75 328/402/75
f 261/445/75 328/402/75 262/446/75
f 262/446/75 328/402/75 263/447/75
f 263/447/75 328/402/75 264/448/75
f 264/448/75 328/402/75 265/449/75
f 265/449/75 328/402/75 299/400/75
f 265/449/75 299/400/75 266/450/75
f 266/450/75 299/400/75 267/419/75
f 277/426/75 276/451/75 341/387/75
f 341/387/75 276/451/75 275/452/75
f 341/387/75 275/452/75 274/421/75
f 272/423/75 271/453/75 293/395/75
f 293/395/75 271/453/75 270/420/75
